<svg xmlns="http://www.w3.org/2000/svg" xmlns:xlink="http://www.w3.org/1999/xlink" width="500" zoomAndPan="magnify" viewBox="0 0 375 374.999991" height="500" preserveAspectRatio="xMidYMid meet" version="1.0"><defs><clipPath id="13e7d2d954"><path d="M 75 101.296875 L 300 101.296875 L 300 273.796875 L 75 273.796875 Z M 75 101.296875 " clip-rule="nonzero"/></clipPath></defs><g clip-path="url(#13e7d2d954)"><path fill="#03346e" d="M 240.015625 218.859375 C 239.769531 218.613281 239.769531 218.113281 239.769531 217.617188 L 239.769531 170.078125 C 239.769531 142.949219 219.109375 120.796875 192.476562 118.058594 L 192.476562 106.609375 C 192.476562 103.871094 190.238281 101.632812 187.5 101.632812 C 184.761719 101.632812 182.523438 103.871094 182.523438 106.609375 L 182.523438 118.058594 C 156.140625 120.546875 135.230469 142.949219 135.230469 170.078125 L 135.230469 217.863281 C 135.230469 218.363281 134.984375 218.613281 134.734375 218.859375 L 122.289062 231.304688 C 120.050781 233.546875 119.054688 236.28125 119.054688 239.519531 L 119.054688 243.253906 C 119.054688 249.472656 124.28125 254.703125 130.503906 254.703125 L 165.347656 254.703125 C 167.089844 265.15625 176.300781 273.367188 187.5 273.367188 C 198.699219 273.367188 207.910156 265.402344 209.652344 254.703125 L 244.496094 254.703125 C 250.71875 254.703125 255.945312 249.472656 255.945312 243.253906 L 255.945312 239.519531 C 255.945312 236.53125 254.703125 233.546875 252.710938 231.304688 Z M 187.5 263.414062 C 182.023438 263.414062 177.296875 259.679688 175.800781 254.703125 L 199.445312 254.703125 C 197.703125 259.679688 192.976562 263.414062 187.5 263.414062 Z M 245.988281 243.253906 C 245.988281 244 245.242188 244.746094 244.496094 244.746094 L 130.503906 244.746094 C 129.757812 244.746094 129.011719 244 129.011719 243.253906 L 129.011719 239.519531 C 129.011719 239.019531 129.257812 238.773438 129.507812 238.523438 L 141.953125 226.078125 C 144.191406 223.839844 145.1875 221.101562 145.1875 217.863281 L 145.1875 170.078125 C 145.1875 146.929688 164.105469 127.765625 187.5 127.765625 C 210.894531 127.765625 229.8125 146.679688 229.8125 170.078125 L 229.8125 217.863281 C 229.8125 220.851562 231.054688 223.839844 233.046875 226.078125 L 245.492188 238.523438 C 245.742188 238.773438 245.988281 239.269531 245.988281 239.519531 Z M 119.304688 213.632812 C 118.308594 214.628906 117.0625 215.128906 115.820312 215.128906 C 114.574219 215.128906 113.328125 214.628906 112.335938 213.632812 C 104.371094 205.667969 99.890625 194.96875 99.890625 183.765625 C 99.890625 172.566406 104.371094 161.863281 112.335938 153.898438 C 114.324219 151.90625 117.3125 151.90625 119.304688 153.898438 C 121.292969 155.890625 121.292969 158.878906 119.304688 160.867188 C 113.082031 167.089844 109.84375 175.054688 109.84375 183.765625 C 109.84375 192.476562 113.328125 200.441406 119.304688 206.664062 C 121.292969 208.65625 121.292969 211.644531 119.304688 213.632812 Z M 101.632812 224.335938 C 103.621094 226.328125 103.621094 229.3125 101.632812 231.304688 C 100.636719 232.300781 99.390625 232.796875 98.148438 232.796875 C 96.902344 232.796875 95.65625 232.300781 94.664062 231.304688 C 81.96875 218.613281 75 201.6875 75 183.765625 C 75 165.847656 81.96875 148.921875 94.664062 136.226562 C 96.652344 134.238281 99.640625 134.238281 101.632812 136.226562 C 103.621094 138.21875 103.621094 141.207031 101.632812 143.195312 C 90.929688 153.898438 84.957031 168.335938 84.957031 183.765625 C 84.957031 199.199219 90.929688 213.386719 101.632812 224.335938 Z M 262.664062 213.632812 C 261.671875 214.628906 260.425781 215.128906 259.179688 215.128906 C 257.9375 215.128906 256.691406 214.628906 255.695312 213.632812 C 253.707031 211.644531 253.707031 208.65625 255.695312 206.664062 C 268.390625 193.972656 268.390625 173.5625 255.695312 160.867188 C 253.707031 158.878906 253.707031 155.890625 255.695312 153.898438 C 257.6875 151.90625 260.675781 151.90625 262.664062 153.898438 C 279.09375 170.328125 279.09375 197.207031 262.664062 213.632812 Z M 300 183.765625 C 300 201.6875 293.03125 218.613281 280.335938 231.304688 C 279.339844 232.300781 278.097656 232.796875 276.851562 232.796875 C 275.609375 232.796875 274.363281 232.300781 273.367188 231.304688 C 271.378906 229.3125 271.378906 226.328125 273.367188 224.335938 C 284.070312 213.632812 290.042969 199.199219 290.042969 183.765625 C 290.042969 168.335938 284.070312 154.148438 273.367188 143.195312 C 271.378906 141.207031 271.378906 138.21875 273.367188 136.226562 C 275.359375 134.238281 278.347656 134.238281 280.335938 136.226562 C 293.03125 148.921875 300 165.847656 300 183.765625 Z M 300 183.765625 " fill-opacity="1" fill-rule="nonzero"/></g></svg>