<svg xmlns="http://www.w3.org/2000/svg" xmlns:xlink="http://www.w3.org/1999/xlink" width="2000" zoomAndPan="magnify" viewBox="0 0 1500 449.999984" height="600" preserveAspectRatio="xMidYMid meet" version="1.0"><defs><g/><clipPath id="7651462c5d"><path d="M 64 89 L 184 89 L 184 209 L 64 209 Z M 64 89 " clip-rule="nonzero"/></clipPath><clipPath id="0863331075"><path d="M 64.441406 189.539062 L 164.730469 89.253906 L 183.792969 108.3125 L 83.503906 208.601562 Z M 64.441406 189.539062 " clip-rule="nonzero"/></clipPath><clipPath id="833b21258a"><path d="M 71 132 L 192 132 L 192 253 L 71 253 Z M 71 132 " clip-rule="nonzero"/></clipPath><clipPath id="793b7017e4"><path d="M 71.878906 233.238281 L 172.167969 132.953125 L 191.226562 152.011719 L 90.9375 252.300781 Z M 71.878906 233.238281 " clip-rule="nonzero"/></clipPath><clipPath id="eacba25d87"><path d="M 71 133 L 191 133 L 191 253 L 71 253 Z M 71 133 " clip-rule="nonzero"/></clipPath><clipPath id="738e457b6d"><path d="M 71.878906 233.238281 L 171.503906 133.617188 L 190.730469 152.84375 L 91.105469 252.464844 Z M 71.878906 233.238281 " clip-rule="nonzero"/></clipPath><clipPath id="ea69b637d6"><path d="M 71.941406 233.179688 L 172.097656 133.023438 L 191.132812 152.058594 L 90.976562 252.214844 Z M 71.941406 233.179688 " clip-rule="nonzero"/></clipPath><clipPath id="975c9deb1e"><path d="M 115 140 L 235 140 L 235 260 L 115 260 Z M 115 140 " clip-rule="nonzero"/></clipPath><clipPath id="32840b13e5"><path d="M 115.460938 240.558594 L 215.75 140.273438 L 234.8125 159.332031 L 134.523438 259.621094 Z M 115.460938 240.558594 " clip-rule="nonzero"/></clipPath><clipPath id="f3e3bfedfa"><path d="M 122 183 L 243 183 L 243 304 L 122 304 Z M 122 183 " clip-rule="nonzero"/></clipPath><clipPath id="e3a2157ea5"><path d="M 122.898438 284.257812 L 223.1875 183.972656 L 242.246094 203.03125 L 141.957031 303.320312 Z M 122.898438 284.257812 " clip-rule="nonzero"/></clipPath><clipPath id="40bc9546bb"><path d="M 198 249 L 220 249 L 220 272 L 198 272 Z M 198 249 " clip-rule="nonzero"/></clipPath><clipPath id="85fc385670"><path d="M 198.488281 259.570312 L 208.242188 249.8125 L 219.703125 261.273438 L 209.949219 271.03125 Z M 198.488281 259.570312 " clip-rule="nonzero"/></clipPath><clipPath id="f310e4000f"><path d="M 79 130 L 100 130 L 100 152 L 79 152 Z M 79 130 " clip-rule="nonzero"/></clipPath><clipPath id="0c20ba45c5"><path d="M 79.277344 140.359375 L 88.652344 130.984375 L 99.433594 141.765625 L 90.0625 151.140625 Z M 79.277344 140.359375 " clip-rule="nonzero"/></clipPath><clipPath id="065d05ecf0"><path d="M 100 252 L 123 252 L 123 275 L 100 275 Z M 100 252 " clip-rule="nonzero"/></clipPath><clipPath id="3071cec046"><path d="M 100.855469 262.613281 L 110.613281 252.855469 L 122.074219 264.316406 L 112.316406 274.070312 Z M 100.855469 262.613281 " clip-rule="nonzero"/></clipPath><clipPath id="d73413eb0d"><path d="M 235 169 L 257 169 L 257 191 L 235 191 Z M 235 169 " clip-rule="nonzero"/></clipPath><clipPath id="52ef698259"><path d="M 235.355469 179.398438 L 245.109375 169.640625 L 256.570312 181.101562 L 246.816406 190.859375 Z M 235.355469 179.398438 " clip-rule="nonzero"/></clipPath><clipPath id="ac6e3f86e7"><path d="M 50 202 L 71 202 L 71 223 L 50 223 Z M 50 202 " clip-rule="nonzero"/></clipPath><clipPath id="57fc41a263"><path d="M 50.449219 211.816406 L 59.820312 202.441406 L 70.601562 213.222656 L 61.230469 222.597656 Z M 50.449219 211.816406 " clip-rule="nonzero"/></clipPath><clipPath id="763a9ff1ab"><path d="M 184 118 L 206 118 L 206 140 L 184 140 Z M 184 118 " clip-rule="nonzero"/></clipPath><clipPath id="a2dd2f7d2b"><path d="M 184.335938 127.996094 L 194.09375 118.238281 L 205.554688 129.699219 L 195.796875 139.457031 Z M 184.335938 127.996094 " clip-rule="nonzero"/></clipPath></defs><path stroke-linecap="butt" transform="matrix(2.653624, 0, 0, 2.653624, 258.117312, 49.94061)" fill="none" stroke-linejoin="miter" d="M 54.617179 30.222823 L 34.915351 30.222823 L 34.915351 52.185711 L 52.473884 52.185711 L 52.473884 53.529686 L 34.915351 53.529686 L 34.915351 79.078472 L 29.167021 79.078472 L 29.167021 28.878848 L 54.617179 28.878848 Z M 107.136744 79.078472 L 98.523818 58.889396 L 78.958889 58.889396 L 70.03389 79.078472 L 68.182059 79.078472 L 90.942794 27.923491 L 91.410904 27.923491 L 113.295773 79.078472 Z M 79.602172 57.60283 L 97.958553 57.60283 L 88.936399 36.537889 Z M 164.536132 28.878848 L 165.803561 28.878848 L 165.803561 60.486563 C 165.803561 73.790892 159.339819 80.441584 146.412334 80.441584 C 144.074729 80.441584 141.781285 80.163368 139.533475 79.603991 C 137.298913 79.046087 135.292518 78.050985 133.512817 76.623103 C 131.733117 75.180501 130.322899 73.153497 129.283637 70.542092 C 128.244374 67.930687 127.724743 64.578844 127.724743 60.486563 L 127.724743 28.878848 L 133.473072 28.878848 L 133.473072 60.486563 C 133.473072 61.656838 133.537842 63.014062 133.668854 64.559708 C 133.811642 66.093577 134.116355 67.658359 134.584465 69.256998 C 135.064351 70.854165 135.812149 72.348289 136.824915 73.737898 C 137.839153 75.115731 139.222874 76.24626 140.976077 77.129486 C 142.729281 77.999464 144.938818 78.435189 147.601745 78.435189 C 149.887828 78.435189 152.044372 78.168749 154.071375 77.635869 C 156.098379 77.102989 157.891328 76.160882 159.450222 74.809546 C 161.022364 73.459682 162.263297 71.575466 163.171548 69.158371 C 164.081271 66.729499 164.536132 63.598463 164.536132 59.766734 Z M 187.282147 77.713887 L 207.237167 77.713887 L 207.237167 79.078472 L 181.533817 79.078472 L 181.533817 28.878848 L 187.282147 28.878848 Z M 273.000706 27.923491 L 278.98309 79.078472 L 273.234761 79.000453 L 268.518334 38.856358 L 247.939167 77.713887 L 247.685975 77.713887 L 227.82811 39.479032 L 222.469872 79.078472 L 221.105288 79.078472 L 228.062165 27.923491 L 228.29622 27.923491 L 250.337126 70.464074 L 272.766651 27.923491 Z M 331.89569 79.078472 L 323.282764 58.889396 L 303.716363 58.889396 L 294.791364 79.078472 L 292.941006 79.078472 L 315.701741 27.923491 L 316.16985 27.923491 L 338.053248 79.078472 Z M 304.359646 57.60283 L 322.717499 57.60283 L 313.693873 36.537889 Z M 388.164549 28.878848 L 388.164549 30.222823 L 372.690429 30.222823 L 372.690429 79.078472 L 367.020118 79.078472 L 367.020118 30.222823 L 351.528333 30.222823 L 351.528333 28.878848 Z M 440.523661 79.078472 L 431.909263 58.889396 L 412.344334 58.889396 L 403.419335 79.078472 L 401.567504 79.078472 L 424.329711 27.923491 L 424.796349 27.923491 L 446.681218 79.078472 Z M 412.987617 57.60283 L 431.34547 57.60283 L 422.321844 36.537889 Z M 412.987617 57.60283 " stroke="#000000" stroke-width="2.195259" stroke-opacity="1" stroke-miterlimit="4"/><g fill="#000000" fill-opacity="1"><g transform="translate(325.328638, 259.576922)"><g><path d="M 77.734375 -129.421875 L 25.421875 -129.421875 L 25.421875 -71.171875 L 72.015625 -71.171875 L 72.015625 -67.5625 L 25.421875 -67.5625 L 25.421875 0.21875 L 10.171875 0.21875 L 10.171875 -133.015625 L 77.734375 -133.015625 Z M 77.734375 -129.421875 "/></g></g></g><g fill="#000000" fill-opacity="1"><g transform="translate(431.652465, 259.576922)"><g><path d="M 110.78125 0.21875 L 87.90625 -53.375 L 36.015625 -53.375 L 12.28125 0.21875 L 7.40625 0.21875 L 67.78125 -135.5625 L 69.046875 -135.5625 L 127.09375 0.21875 Z M 37.703125 -56.765625 L 86.421875 -56.765625 L 62.484375 -112.6875 Z M 37.703125 -56.765625 "/></g></g></g><g fill="#000000" fill-opacity="1"><g transform="translate(587.535729, 259.576922)"><g><path d="M 107.171875 -133.015625 L 110.5625 -133.015625 L 110.5625 -49.140625 C 110.5625 -13.835938 93.40625 3.8125 59.09375 3.8125 C 52.882812 3.8125 46.8125 3.066406 40.875 1.578125 C 34.945312 0.0976562 29.617188 -2.546875 24.890625 -6.359375 C 20.160156 -10.171875 16.414062 -15.535156 13.65625 -22.453125 C 10.90625 -29.367188 9.53125 -38.265625 9.53125 -49.140625 L 9.53125 -133.015625 L 24.78125 -133.015625 L 24.78125 -49.140625 C 24.78125 -46.035156 24.957031 -42.4375 25.3125 -38.34375 C 25.664062 -34.25 26.476562 -30.082031 27.75 -25.84375 C 29.019531 -21.601562 30.992188 -17.644531 33.671875 -13.96875 C 36.359375 -10.300781 40.03125 -7.300781 44.6875 -4.96875 C 49.351562 -2.644531 55.210938 -1.484375 62.265625 -1.484375 C 68.335938 -1.484375 74.054688 -2.1875 79.421875 -3.59375 C 84.796875 -5.007812 89.5625 -7.515625 93.71875 -11.109375 C 97.882812 -14.710938 101.164062 -19.726562 103.5625 -26.15625 C 105.96875 -32.582031 107.171875 -40.878906 107.171875 -51.046875 Z M 107.171875 -133.015625 "/></g></g></g><g fill="#000000" fill-opacity="1"><g transform="translate(729.652477, 259.576922)"><g><path d="M 25.421875 -3.390625 L 78.375 -3.390625 L 78.375 0.21875 L 10.171875 0.21875 L 10.171875 -133.015625 L 25.421875 -133.015625 Z M 25.421875 -3.390625 "/></g></g></g><g fill="#000000" fill-opacity="1"><g transform="translate(837.247027, 259.576922)"><g><path d="M 145.296875 -135.5625 L 161.1875 0.21875 L 145.9375 0 L 133.4375 -106.546875 L 78.796875 -3.390625 L 78.15625 -3.390625 L 25.421875 -104.84375 L 11.21875 0.21875 L 7.625 0.21875 L 26.046875 -135.5625 L 26.6875 -135.5625 L 85.15625 -22.65625 L 144.671875 -135.5625 Z M 145.296875 -135.5625 "/></g></g></g><g fill="#000000" fill-opacity="1"><g transform="translate(1028.075996, 259.576922)"><g><path d="M 110.78125 0.21875 L 87.90625 -53.375 L 36.015625 -53.375 L 12.28125 0.21875 L 7.40625 0.21875 L 67.78125 -135.5625 L 69.046875 -135.5625 L 127.09375 0.21875 Z M 37.703125 -56.765625 L 86.421875 -56.765625 L 62.484375 -112.6875 Z M 37.703125 -56.765625 "/></g></g></g><g fill="#000000" fill-opacity="1"><g transform="translate(1183.959249, 259.576922)"><g><path d="M 104.21875 -133.015625 L 104.21875 -129.421875 L 63.125 -129.421875 L 63.125 0.21875 L 48.078125 0.21875 L 48.078125 -129.421875 L 6.984375 -129.421875 L 6.984375 -133.015625 Z M 104.21875 -133.015625 "/></g></g></g><g fill="#000000" fill-opacity="1"><g transform="translate(1316.333536, 259.576922)"><g><path d="M 110.78125 0.21875 L 87.90625 -53.375 L 36.015625 -53.375 L 12.28125 0.21875 L 7.40625 0.21875 L 67.78125 -135.5625 L 69.046875 -135.5625 L 127.09375 0.21875 Z M 37.703125 -56.765625 L 86.421875 -56.765625 L 62.484375 -112.6875 Z M 37.703125 -56.765625 "/></g></g></g><g fill="#000000" fill-opacity="1"><g transform="translate(582.89642, 369.699677)"><g><path d="M 18.328125 -3.828125 C 18.585938 -3.828125 18.796875 -3.753906 18.953125 -3.609375 C 19.117188 -3.472656 19.203125 -3.28125 19.203125 -3.03125 L 19.203125 -0.625 C 19.203125 -0.4375 19.140625 -0.285156 19.015625 -0.171875 C 18.898438 -0.0546875 18.742188 0 18.546875 0 L 3.234375 0 C 2.804688 0 2.59375 -0.207031 2.59375 -0.625 L 2.59375 -21.078125 C 2.59375 -21.515625 2.804688 -21.734375 3.234375 -21.734375 L 18.234375 -21.734375 C 18.441406 -21.734375 18.601562 -21.675781 18.71875 -21.5625 C 18.832031 -21.445312 18.890625 -21.289062 18.890625 -21.09375 L 18.890625 -18.546875 C 18.890625 -18.109375 18.671875 -17.890625 18.234375 -17.890625 L 6.640625 -17.890625 L 6.640625 -11.90625 L 15.71875 -11.90625 C 15.957031 -11.90625 16.144531 -11.847656 16.28125 -11.734375 C 16.414062 -11.617188 16.484375 -11.453125 16.484375 -11.234375 L 16.484375 -8.84375 C 16.484375 -8.644531 16.414062 -8.488281 16.28125 -8.375 C 16.144531 -8.257812 15.957031 -8.203125 15.71875 -8.203125 L 6.640625 -8.203125 L 6.640625 -3.828125 Z M 18.328125 -3.828125 "/></g></g></g><g fill="#000000" fill-opacity="1"><g transform="translate(626.973103, 369.699677)"><g><path d="M 21.453125 -21.765625 C 21.773438 -21.765625 21.9375 -21.601562 21.9375 -21.28125 L 21.9375 -0.390625 C 21.9375 -0.179688 21.878906 -0.0195312 21.765625 0.09375 C 21.660156 0.21875 21.535156 0.28125 21.390625 0.28125 L 21.359375 0.28125 C 21.171875 0.28125 21.015625 0.226562 20.890625 0.125 C 20.773438 0.0195312 20.632812 -0.0976562 20.46875 -0.234375 L 6.640625 -13.359375 L 6.640625 -0.453125 C 6.640625 -0.140625 6.484375 0.015625 6.171875 0.015625 L 3.078125 0.015625 C 2.753906 0.015625 2.59375 -0.140625 2.59375 -0.453125 L 2.59375 -21.390625 C 2.59375 -21.566406 2.640625 -21.710938 2.734375 -21.828125 C 2.835938 -21.953125 2.96875 -22.015625 3.125 -22.015625 L 3.171875 -22.015625 C 3.328125 -22.015625 3.460938 -21.960938 3.578125 -21.859375 C 3.691406 -21.753906 3.828125 -21.632812 3.984375 -21.5 L 17.90625 -8.3125 L 17.90625 -21.28125 C 17.90625 -21.601562 18.0625 -21.765625 18.375 -21.765625 Z M 21.453125 -21.765625 "/></g></g></g><g fill="#000000" fill-opacity="1"><g transform="translate(674.923844, 369.699677)"><g><path d="M 18.328125 -3.828125 C 18.585938 -3.828125 18.796875 -3.753906 18.953125 -3.609375 C 19.117188 -3.472656 19.203125 -3.28125 19.203125 -3.03125 L 19.203125 -0.625 C 19.203125 -0.4375 19.140625 -0.285156 19.015625 -0.171875 C 18.898438 -0.0546875 18.742188 0 18.546875 0 L 3.234375 0 C 2.804688 0 2.59375 -0.207031 2.59375 -0.625 L 2.59375 -21.078125 C 2.59375 -21.515625 2.804688 -21.734375 3.234375 -21.734375 L 18.234375 -21.734375 C 18.441406 -21.734375 18.601562 -21.675781 18.71875 -21.5625 C 18.832031 -21.445312 18.890625 -21.289062 18.890625 -21.09375 L 18.890625 -18.546875 C 18.890625 -18.109375 18.671875 -17.890625 18.234375 -17.890625 L 6.640625 -17.890625 L 6.640625 -11.90625 L 15.71875 -11.90625 C 15.957031 -11.90625 16.144531 -11.847656 16.28125 -11.734375 C 16.414062 -11.617188 16.484375 -11.453125 16.484375 -11.234375 L 16.484375 -8.84375 C 16.484375 -8.644531 16.414062 -8.488281 16.28125 -8.375 C 16.144531 -8.257812 15.957031 -8.203125 15.71875 -8.203125 L 6.640625 -8.203125 L 6.640625 -3.828125 Z M 18.328125 -3.828125 "/></g></g></g><g fill="#000000" fill-opacity="1"><g transform="translate(719.00053, 369.699677)"><g><path d="M 16.234375 -6.421875 L 19.15625 -0.734375 C 19.257812 -0.523438 19.269531 -0.347656 19.1875 -0.203125 C 19.113281 -0.0546875 18.960938 0.015625 18.734375 0.015625 L 15.59375 0.015625 C 15.457031 0.015625 15.320312 -0.03125 15.1875 -0.125 C 15.050781 -0.226562 14.941406 -0.359375 14.859375 -0.515625 L 12.609375 -5.125 C 12.378906 -5.082031 12.140625 -5.050781 11.890625 -5.03125 C 11.640625 -5.019531 11.382812 -5.015625 11.125 -5.015625 L 6.640625 -5.015625 L 6.640625 -0.609375 C 6.640625 -0.421875 6.578125 -0.269531 6.453125 -0.15625 C 6.328125 -0.0390625 6.171875 0.015625 5.984375 0.015625 L 3.234375 0.015625 C 3.054688 0.015625 2.90625 -0.0390625 2.78125 -0.15625 C 2.65625 -0.269531 2.59375 -0.421875 2.59375 -0.609375 L 2.59375 -21.109375 C 2.59375 -21.296875 2.65625 -21.445312 2.78125 -21.5625 C 2.90625 -21.675781 3.054688 -21.734375 3.234375 -21.734375 L 3.953125 -21.734375 C 4.367188 -21.734375 4.78125 -21.734375 5.1875 -21.734375 C 5.59375 -21.734375 5.878906 -21.734375 6.046875 -21.734375 L 11.125 -21.734375 C 12.40625 -21.734375 13.578125 -21.523438 14.640625 -21.109375 C 15.710938 -20.691406 16.640625 -20.101562 17.421875 -19.34375 C 18.210938 -18.59375 18.820312 -17.703125 19.25 -16.671875 C 19.6875 -15.648438 19.90625 -14.523438 19.90625 -13.296875 C 19.90625 -11.828125 19.578125 -10.5 18.921875 -9.3125 C 18.265625 -8.125 17.367188 -7.160156 16.234375 -6.421875 Z M 10.875 -8.390625 C 11.84375 -8.390625 12.703125 -8.597656 13.453125 -9.015625 C 14.210938 -9.441406 14.804688 -10.023438 15.234375 -10.765625 C 15.660156 -11.515625 15.875 -12.367188 15.875 -13.328125 C 15.875 -14.035156 15.75 -14.6875 15.5 -15.28125 C 15.25 -15.875 14.898438 -16.390625 14.453125 -16.828125 C 14.003906 -17.265625 13.472656 -17.601562 12.859375 -17.84375 C 12.242188 -18.082031 11.582031 -18.203125 10.875 -18.203125 L 6.640625 -18.203125 L 6.640625 -8.390625 Z M 10.875 -8.390625 "/></g></g></g><g fill="#000000" fill-opacity="1"><g transform="translate(764.120775, 369.699677)"><g><path d="M 19.65625 -11.0625 C 19.96875 -11.0625 20.125 -10.898438 20.125 -10.578125 L 20.125 -2.40625 C 20.125 -2.28125 20.09375 -2.148438 20.03125 -2.015625 C 19.96875 -1.878906 19.882812 -1.773438 19.78125 -1.703125 C 19.363281 -1.410156 18.875 -1.140625 18.3125 -0.890625 C 17.757812 -0.648438 17.160156 -0.4375 16.515625 -0.25 C 15.878906 -0.0625 15.234375 0.0820312 14.578125 0.1875 C 13.921875 0.289062 13.285156 0.34375 12.671875 0.34375 C 11.398438 0.34375 10.191406 0.160156 9.046875 -0.203125 C 7.910156 -0.578125 6.863281 -1.101562 5.90625 -1.78125 C 4.957031 -2.457031 4.140625 -3.257812 3.453125 -4.1875 C 2.765625 -5.113281 2.226562 -6.140625 1.84375 -7.265625 C 1.46875 -8.390625 1.28125 -9.585938 1.28125 -10.859375 C 1.28125 -12.117188 1.46875 -13.3125 1.84375 -14.4375 C 2.226562 -15.570312 2.765625 -16.597656 3.453125 -17.515625 C 4.140625 -18.441406 4.957031 -19.242188 5.90625 -19.921875 C 6.851562 -20.609375 7.894531 -21.132812 9.03125 -21.5 C 10.175781 -21.875 11.382812 -22.0625 12.65625 -22.0625 C 13.394531 -22.0625 14.164062 -21.976562 14.96875 -21.8125 C 15.769531 -21.65625 16.550781 -21.410156 17.3125 -21.078125 C 18.070312 -20.742188 18.75 -20.332031 19.34375 -19.84375 C 19.476562 -19.726562 19.554688 -19.585938 19.578125 -19.421875 C 19.609375 -19.253906 19.578125 -19.101562 19.484375 -18.96875 L 17.90625 -16.578125 C 17.800781 -16.421875 17.664062 -16.335938 17.5 -16.328125 C 17.332031 -16.316406 17.175781 -16.375 17.03125 -16.5 C 16.601562 -16.863281 16.132812 -17.160156 15.625 -17.390625 C 15.125 -17.617188 14.617188 -17.785156 14.109375 -17.890625 C 13.597656 -17.992188 13.117188 -18.046875 12.671875 -18.046875 C 11.640625 -18.046875 10.679688 -17.863281 9.796875 -17.5 C 8.910156 -17.132812 8.132812 -16.625 7.46875 -15.96875 C 6.800781 -15.3125 6.273438 -14.546875 5.890625 -13.671875 C 5.515625 -12.804688 5.328125 -11.867188 5.328125 -10.859375 C 5.328125 -9.835938 5.507812 -8.882812 5.875 -8 C 6.238281 -7.113281 6.742188 -6.332031 7.390625 -5.65625 C 8.046875 -4.988281 8.820312 -4.460938 9.71875 -4.078125 C 10.625 -3.691406 11.609375 -3.5 12.671875 -3.5 C 13.046875 -3.5 13.457031 -3.546875 13.90625 -3.640625 C 14.351562 -3.742188 14.785156 -3.878906 15.203125 -4.046875 C 15.628906 -4.210938 15.988281 -4.394531 16.28125 -4.59375 L 16.28125 -7.6875 L 12.578125 -7.6875 C 12.265625 -7.6875 12.109375 -7.84375 12.109375 -8.15625 L 12.109375 -10.578125 C 12.109375 -10.898438 12.265625 -11.0625 12.578125 -11.0625 Z M 19.65625 -11.0625 "/></g></g></g><g fill="#000000" fill-opacity="1"><g transform="translate(809.555519, 369.699677)"><g><path d="M 18.265625 -21.765625 C 18.484375 -21.765625 18.632812 -21.695312 18.71875 -21.5625 C 18.8125 -21.425781 18.804688 -21.238281 18.703125 -21 L 11.578125 -8.59375 L 11.578125 -0.625 C 11.578125 -0.195312 11.367188 0.015625 10.953125 0.015625 L 8.1875 0.015625 C 7.75 0.015625 7.53125 -0.195312 7.53125 -0.625 L 7.53125 -8.625 L 0.421875 -21 C 0.316406 -21.25 0.3125 -21.4375 0.40625 -21.5625 C 0.5 -21.695312 0.65625 -21.765625 0.875 -21.765625 L 4.125 -21.765625 C 4.257812 -21.765625 4.394531 -21.707031 4.53125 -21.59375 C 4.675781 -21.488281 4.789062 -21.359375 4.875 -21.203125 L 9.5625 -12.71875 L 14.234375 -21.21875 C 14.429688 -21.582031 14.691406 -21.765625 15.015625 -21.765625 Z M 18.265625 -21.765625 "/></g></g></g><g fill="#000000" fill-opacity="1"><g transform="translate(852.102602, 369.699677)"><g/></g></g><g fill="#000000" fill-opacity="1"><g transform="translate(884.742949, 369.699677)"><g><path d="M 6.625 -21.265625 L 6.625 -0.453125 C 6.625 -0.140625 6.460938 0.015625 6.140625 0.015625 L 3.0625 0.015625 C 2.75 0.015625 2.59375 -0.140625 2.59375 -0.453125 L 2.59375 -21.265625 C 2.59375 -21.597656 2.75 -21.765625 3.0625 -21.765625 L 6.140625 -21.765625 C 6.460938 -21.765625 6.625 -21.597656 6.625 -21.265625 Z M 6.625 -21.265625 "/></g></g></g><g fill="#000000" fill-opacity="1"><g transform="translate(917.383296, 369.699677)"><g><path d="M 21.453125 -21.765625 C 21.773438 -21.765625 21.9375 -21.601562 21.9375 -21.28125 L 21.9375 -0.390625 C 21.9375 -0.179688 21.878906 -0.0195312 21.765625 0.09375 C 21.660156 0.21875 21.535156 0.28125 21.390625 0.28125 L 21.359375 0.28125 C 21.171875 0.28125 21.015625 0.226562 20.890625 0.125 C 20.773438 0.0195312 20.632812 -0.0976562 20.46875 -0.234375 L 6.640625 -13.359375 L 6.640625 -0.453125 C 6.640625 -0.140625 6.484375 0.015625 6.171875 0.015625 L 3.078125 0.015625 C 2.753906 0.015625 2.59375 -0.140625 2.59375 -0.453125 L 2.59375 -21.390625 C 2.59375 -21.566406 2.640625 -21.710938 2.734375 -21.828125 C 2.835938 -21.953125 2.96875 -22.015625 3.125 -22.015625 L 3.171875 -22.015625 C 3.328125 -22.015625 3.460938 -21.960938 3.578125 -21.859375 C 3.691406 -21.753906 3.828125 -21.632812 3.984375 -21.5 L 17.90625 -8.3125 L 17.90625 -21.28125 C 17.90625 -21.601562 18.0625 -21.765625 18.375 -21.765625 Z M 21.453125 -21.765625 "/></g></g></g><g fill="#000000" fill-opacity="1"><g transform="translate(965.334047, 369.699677)"><g><path d="M 9.8125 0.34375 C 8.988281 0.34375 8.171875 0.253906 7.359375 0.078125 C 6.554688 -0.0976562 5.789062 -0.347656 5.0625 -0.671875 C 4.332031 -0.992188 3.664062 -1.375 3.0625 -1.8125 C 2.46875 -2.257812 1.976562 -2.753906 1.59375 -3.296875 C 1.488281 -3.421875 1.441406 -3.566406 1.453125 -3.734375 C 1.472656 -3.898438 1.5625 -4.0625 1.71875 -4.21875 L 3.578125 -6.078125 C 3.710938 -6.203125 3.863281 -6.25 4.03125 -6.21875 C 4.195312 -6.195312 4.363281 -6.109375 4.53125 -5.953125 C 4.957031 -5.492188 5.453125 -5.078125 6.015625 -4.703125 C 6.578125 -4.335938 7.171875 -4.046875 7.796875 -3.828125 C 8.429688 -3.617188 9.050781 -3.515625 9.65625 -3.515625 C 10.875 -3.515625 11.804688 -3.753906 12.453125 -4.234375 C 13.109375 -4.710938 13.4375 -5.367188 13.4375 -6.203125 C 13.4375 -6.722656 13.253906 -7.164062 12.890625 -7.53125 C 12.535156 -7.894531 12.019531 -8.226562 11.34375 -8.53125 C 10.664062 -8.84375 9.835938 -9.164062 8.859375 -9.5 C 7.828125 -9.832031 6.910156 -10.191406 6.109375 -10.578125 C 5.304688 -10.960938 4.625 -11.398438 4.0625 -11.890625 C 3.5 -12.390625 3.070312 -12.96875 2.78125 -13.625 C 2.488281 -14.289062 2.34375 -15.0625 2.34375 -15.9375 C 2.34375 -17.164062 2.644531 -18.238281 3.25 -19.15625 C 3.851562 -20.070312 4.710938 -20.785156 5.828125 -21.296875 C 6.941406 -21.804688 8.253906 -22.0625 9.765625 -22.0625 C 10.585938 -22.0625 11.390625 -21.957031 12.171875 -21.75 C 12.960938 -21.539062 13.6875 -21.253906 14.34375 -20.890625 C 15 -20.523438 15.535156 -20.09375 15.953125 -19.59375 C 16.097656 -19.4375 16.171875 -19.257812 16.171875 -19.0625 C 16.179688 -18.875 16.125 -18.703125 16 -18.546875 L 14.484375 -16.828125 C 14.285156 -16.585938 14.085938 -16.476562 13.890625 -16.5 C 13.691406 -16.519531 13.476562 -16.609375 13.25 -16.765625 C 12.757812 -17.222656 12.179688 -17.578125 11.515625 -17.828125 C 10.859375 -18.078125 10.210938 -18.203125 9.578125 -18.203125 C 8.546875 -18.203125 7.742188 -17.984375 7.171875 -17.546875 C 6.597656 -17.117188 6.3125 -16.566406 6.3125 -15.890625 C 6.3125 -15.347656 6.515625 -14.882812 6.921875 -14.5 C 7.328125 -14.113281 7.878906 -13.765625 8.578125 -13.453125 C 9.273438 -13.148438 10.050781 -12.859375 10.90625 -12.578125 C 11.78125 -12.285156 12.617188 -11.972656 13.421875 -11.640625 C 14.222656 -11.304688 14.9375 -10.90625 15.5625 -10.4375 C 16.195312 -9.96875 16.695312 -9.394531 17.0625 -8.71875 C 17.425781 -8.039062 17.609375 -7.222656 17.609375 -6.265625 C 17.609375 -5.253906 17.414062 -4.335938 17.03125 -3.515625 C 16.65625 -2.703125 16.117188 -2.007812 15.421875 -1.4375 C 14.734375 -0.863281 13.910156 -0.421875 12.953125 -0.109375 C 12.003906 0.191406 10.957031 0.34375 9.8125 0.34375 Z M 9.8125 0.34375 "/></g></g></g><g fill="#000000" fill-opacity="1"><g transform="translate(1007.738177, 369.699677)"><g><path d="M 6.625 -21.265625 L 6.625 -0.453125 C 6.625 -0.140625 6.460938 0.015625 6.140625 0.015625 L 3.0625 0.015625 C 2.75 0.015625 2.59375 -0.140625 2.59375 -0.453125 L 2.59375 -21.265625 C 2.59375 -21.597656 2.75 -21.765625 3.0625 -21.765625 L 6.140625 -21.765625 C 6.460938 -21.765625 6.625 -21.597656 6.625 -21.265625 Z M 6.625 -21.265625 "/></g></g></g><g fill="#000000" fill-opacity="1"><g transform="translate(1040.378524, 369.699677)"><g><path d="M 19.65625 -11.0625 C 19.96875 -11.0625 20.125 -10.898438 20.125 -10.578125 L 20.125 -2.40625 C 20.125 -2.28125 20.09375 -2.148438 20.03125 -2.015625 C 19.96875 -1.878906 19.882812 -1.773438 19.78125 -1.703125 C 19.363281 -1.410156 18.875 -1.140625 18.3125 -0.890625 C 17.757812 -0.648438 17.160156 -0.4375 16.515625 -0.25 C 15.878906 -0.0625 15.234375 0.0820312 14.578125 0.1875 C 13.921875 0.289062 13.285156 0.34375 12.671875 0.34375 C 11.398438 0.34375 10.191406 0.160156 9.046875 -0.203125 C 7.910156 -0.578125 6.863281 -1.101562 5.90625 -1.78125 C 4.957031 -2.457031 4.140625 -3.257812 3.453125 -4.1875 C 2.765625 -5.113281 2.226562 -6.140625 1.84375 -7.265625 C 1.46875 -8.390625 1.28125 -9.585938 1.28125 -10.859375 C 1.28125 -12.117188 1.46875 -13.3125 1.84375 -14.4375 C 2.226562 -15.570312 2.765625 -16.597656 3.453125 -17.515625 C 4.140625 -18.441406 4.957031 -19.242188 5.90625 -19.921875 C 6.851562 -20.609375 7.894531 -21.132812 9.03125 -21.5 C 10.175781 -21.875 11.382812 -22.0625 12.65625 -22.0625 C 13.394531 -22.0625 14.164062 -21.976562 14.96875 -21.8125 C 15.769531 -21.65625 16.550781 -21.410156 17.3125 -21.078125 C 18.070312 -20.742188 18.75 -20.332031 19.34375 -19.84375 C 19.476562 -19.726562 19.554688 -19.585938 19.578125 -19.421875 C 19.609375 -19.253906 19.578125 -19.101562 19.484375 -18.96875 L 17.90625 -16.578125 C 17.800781 -16.421875 17.664062 -16.335938 17.5 -16.328125 C 17.332031 -16.316406 17.175781 -16.375 17.03125 -16.5 C 16.601562 -16.863281 16.132812 -17.160156 15.625 -17.390625 C 15.125 -17.617188 14.617188 -17.785156 14.109375 -17.890625 C 13.597656 -17.992188 13.117188 -18.046875 12.671875 -18.046875 C 11.640625 -18.046875 10.679688 -17.863281 9.796875 -17.5 C 8.910156 -17.132812 8.132812 -16.625 7.46875 -15.96875 C 6.800781 -15.3125 6.273438 -14.546875 5.890625 -13.671875 C 5.515625 -12.804688 5.328125 -11.867188 5.328125 -10.859375 C 5.328125 -9.835938 5.507812 -8.882812 5.875 -8 C 6.238281 -7.113281 6.742188 -6.332031 7.390625 -5.65625 C 8.046875 -4.988281 8.820312 -4.460938 9.71875 -4.078125 C 10.625 -3.691406 11.609375 -3.5 12.671875 -3.5 C 13.046875 -3.5 13.457031 -3.546875 13.90625 -3.640625 C 14.351562 -3.742188 14.785156 -3.878906 15.203125 -4.046875 C 15.628906 -4.210938 15.988281 -4.394531 16.28125 -4.59375 L 16.28125 -7.6875 L 12.578125 -7.6875 C 12.265625 -7.6875 12.109375 -7.84375 12.109375 -8.15625 L 12.109375 -10.578125 C 12.109375 -10.898438 12.265625 -11.0625 12.578125 -11.0625 Z M 19.65625 -11.0625 "/></g></g></g><g fill="#000000" fill-opacity="1"><g transform="translate(1085.813254, 369.699677)"><g><path d="M 21 -21.765625 C 21.320312 -21.765625 21.484375 -21.597656 21.484375 -21.265625 L 21.484375 -0.453125 C 21.484375 -0.140625 21.320312 0.015625 21 0.015625 L 17.90625 0.015625 C 17.601562 0.015625 17.453125 -0.140625 17.453125 -0.453125 L 17.453125 -6.90625 L 6.640625 -6.90625 L 6.640625 -0.453125 C 6.640625 -0.140625 6.484375 0.015625 6.171875 0.015625 L 3.078125 0.015625 C 2.753906 0.015625 2.59375 -0.140625 2.59375 -0.453125 L 2.59375 -21.265625 C 2.59375 -21.597656 2.753906 -21.765625 3.078125 -21.765625 L 6.171875 -21.765625 C 6.484375 -21.765625 6.640625 -21.597656 6.640625 -21.265625 L 6.640625 -10.453125 L 17.453125 -10.453125 L 17.453125 -21.265625 C 17.453125 -21.597656 17.601562 -21.765625 17.90625 -21.765625 Z M 21 -21.765625 "/></g></g></g><g fill="#000000" fill-opacity="1"><g transform="translate(1133.306524, 369.699677)"><g><path d="M 0.84375 -18.84375 L 0.84375 -21.09375 C 0.84375 -21.519531 1.050781 -21.734375 1.46875 -21.734375 L 16.359375 -21.734375 C 16.554688 -21.734375 16.707031 -21.675781 16.8125 -21.5625 C 16.925781 -21.445312 16.984375 -21.289062 16.984375 -21.09375 L 16.984375 -18.84375 C 16.984375 -18.414062 16.773438 -18.203125 16.359375 -18.203125 L 10.921875 -18.203125 L 10.921875 -0.609375 C 10.921875 -0.191406 10.703125 0.015625 10.265625 0.015625 L 7.515625 0.015625 C 7.085938 0.015625 6.875 -0.191406 6.875 -0.609375 L 6.875 -18.203125 L 1.46875 -18.203125 C 1.28125 -18.203125 1.128906 -18.253906 1.015625 -18.359375 C 0.898438 -18.472656 0.84375 -18.632812 0.84375 -18.84375 Z M 0.84375 -18.84375 "/></g></g></g><g fill="#000000" fill-opacity="1"><g transform="translate(1174.552711, 369.699677)"><g><path d="M 9.8125 0.34375 C 8.988281 0.34375 8.171875 0.253906 7.359375 0.078125 C 6.554688 -0.0976562 5.789062 -0.347656 5.0625 -0.671875 C 4.332031 -0.992188 3.664062 -1.375 3.0625 -1.8125 C 2.46875 -2.257812 1.976562 -2.753906 1.59375 -3.296875 C 1.488281 -3.421875 1.441406 -3.566406 1.453125 -3.734375 C 1.472656 -3.898438 1.5625 -4.0625 1.71875 -4.21875 L 3.578125 -6.078125 C 3.710938 -6.203125 3.863281 -6.25 4.03125 -6.21875 C 4.195312 -6.195312 4.363281 -6.109375 4.53125 -5.953125 C 4.957031 -5.492188 5.453125 -5.078125 6.015625 -4.703125 C 6.578125 -4.335938 7.171875 -4.046875 7.796875 -3.828125 C 8.429688 -3.617188 9.050781 -3.515625 9.65625 -3.515625 C 10.875 -3.515625 11.804688 -3.753906 12.453125 -4.234375 C 13.109375 -4.710938 13.4375 -5.367188 13.4375 -6.203125 C 13.4375 -6.722656 13.253906 -7.164062 12.890625 -7.53125 C 12.535156 -7.894531 12.019531 -8.226562 11.34375 -8.53125 C 10.664062 -8.84375 9.835938 -9.164062 8.859375 -9.5 C 7.828125 -9.832031 6.910156 -10.191406 6.109375 -10.578125 C 5.304688 -10.960938 4.625 -11.398438 4.0625 -11.890625 C 3.5 -12.390625 3.070312 -12.96875 2.78125 -13.625 C 2.488281 -14.289062 2.34375 -15.0625 2.34375 -15.9375 C 2.34375 -17.164062 2.644531 -18.238281 3.25 -19.15625 C 3.851562 -20.070312 4.710938 -20.785156 5.828125 -21.296875 C 6.941406 -21.804688 8.253906 -22.0625 9.765625 -22.0625 C 10.585938 -22.0625 11.390625 -21.957031 12.171875 -21.75 C 12.960938 -21.539062 13.6875 -21.253906 14.34375 -20.890625 C 15 -20.523438 15.535156 -20.09375 15.953125 -19.59375 C 16.097656 -19.4375 16.171875 -19.257812 16.171875 -19.0625 C 16.179688 -18.875 16.125 -18.703125 16 -18.546875 L 14.484375 -16.828125 C 14.285156 -16.585938 14.085938 -16.476562 13.890625 -16.5 C 13.691406 -16.519531 13.476562 -16.609375 13.25 -16.765625 C 12.757812 -17.222656 12.179688 -17.578125 11.515625 -17.828125 C 10.859375 -18.078125 10.210938 -18.203125 9.578125 -18.203125 C 8.546875 -18.203125 7.742188 -17.984375 7.171875 -17.546875 C 6.597656 -17.117188 6.3125 -16.566406 6.3125 -15.890625 C 6.3125 -15.347656 6.515625 -14.882812 6.921875 -14.5 C 7.328125 -14.113281 7.878906 -13.765625 8.578125 -13.453125 C 9.273438 -13.148438 10.050781 -12.859375 10.90625 -12.578125 C 11.78125 -12.285156 12.617188 -11.972656 13.421875 -11.640625 C 14.222656 -11.304688 14.9375 -10.90625 15.5625 -10.4375 C 16.195312 -9.96875 16.695312 -9.394531 17.0625 -8.71875 C 17.425781 -8.039062 17.609375 -7.222656 17.609375 -6.265625 C 17.609375 -5.253906 17.414062 -4.335938 17.03125 -3.515625 C 16.65625 -2.703125 16.117188 -2.007812 15.421875 -1.4375 C 14.734375 -0.863281 13.910156 -0.421875 12.953125 -0.109375 C 12.003906 0.191406 10.957031 0.34375 9.8125 0.34375 Z M 9.8125 0.34375 "/></g></g></g><g clip-path="url(#7651462c5d)"><g clip-path="url(#0863331075)"><path fill="#000000" d="M 64.441406 189.539062 L 164.730469 89.253906 L 183.789062 108.3125 L 83.503906 208.601562 Z M 64.441406 189.539062 " fill-opacity="1" fill-rule="nonzero"/></g></g><g clip-path="url(#833b21258a)"><g clip-path="url(#793b7017e4)"><path fill="#000000" d="M 71.878906 233.238281 L 172.164062 132.953125 L 191.226562 152.015625 L 90.9375 252.300781 Z M 71.878906 233.238281 " fill-opacity="1" fill-rule="nonzero"/></g></g><g clip-path="url(#eacba25d87)"><g clip-path="url(#738e457b6d)"><g clip-path="url(#ea69b637d6)"><path stroke-linecap="butt" transform="matrix(1.747779, -1.747779, 1.747779, 1.747779, 71.941046, 233.178805)" fill="none" stroke-linejoin="miter" d="M -0.000149497 0.000355408 L 57.304718 0.000355408 L 57.304718 10.891409 L -0.000149497 10.891409 Z M -0.000149497 0.000355408 " stroke="#000000" stroke-width="1.213723" stroke-opacity="1" stroke-miterlimit="4"/></g></g></g><g clip-path="url(#975c9deb1e)"><g clip-path="url(#32840b13e5)"><path fill="#000000" d="M 115.460938 240.558594 L 215.75 140.273438 L 234.808594 159.332031 L 134.523438 259.621094 Z M 115.460938 240.558594 " fill-opacity="1" fill-rule="nonzero"/></g></g><g clip-path="url(#f3e3bfedfa)"><g clip-path="url(#e3a2157ea5)"><path fill="#000000" d="M 122.898438 284.257812 L 223.183594 183.972656 L 242.246094 203.035156 L 141.957031 303.320312 Z M 122.898438 284.257812 " fill-opacity="1" fill-rule="nonzero"/></g></g><g clip-path="url(#40bc9546bb)"><g clip-path="url(#85fc385670)"><path fill="#000000" d="M 198.488281 259.570312 L 208.242188 249.8125 L 219.714844 261.285156 L 209.957031 271.042969 Z M 198.488281 259.570312 " fill-opacity="1" fill-rule="nonzero"/></g></g><g clip-path="url(#f310e4000f)"><g clip-path="url(#0c20ba45c5)"><path fill="#000000" d="M 79.277344 140.359375 L 88.652344 130.984375 L 99.414062 141.75 L 90.042969 151.121094 Z M 79.277344 140.359375 " fill-opacity="1" fill-rule="nonzero"/></g></g><g clip-path="url(#065d05ecf0)"><g clip-path="url(#3071cec046)"><path fill="#000000" d="M 100.855469 262.613281 L 110.613281 252.855469 L 122.085938 264.328125 L 112.328125 274.082031 Z M 100.855469 262.613281 " fill-opacity="1" fill-rule="nonzero"/></g></g><g clip-path="url(#d73413eb0d)"><g clip-path="url(#52ef698259)"><path fill="#000000" d="M 235.355469 179.398438 L 245.109375 169.640625 L 256.582031 181.113281 L 246.828125 190.871094 Z M 235.355469 179.398438 " fill-opacity="1" fill-rule="nonzero"/></g></g><g clip-path="url(#ac6e3f86e7)"><g clip-path="url(#57fc41a263)"><path fill="#000000" d="M 50.449219 211.816406 L 59.820312 202.441406 L 70.582031 213.207031 L 61.210938 222.578125 Z M 50.449219 211.816406 " fill-opacity="1" fill-rule="nonzero"/></g></g><g clip-path="url(#763a9ff1ab)"><g clip-path="url(#a2dd2f7d2b)"><path fill="#000000" d="M 184.335938 127.996094 L 194.09375 118.238281 L 205.5625 129.710938 L 195.808594 139.46875 Z M 184.335938 127.996094 " fill-opacity="1" fill-rule="nonzero"/></g></g></svg>