<svg xmlns="http://www.w3.org/2000/svg" xmlns:xlink="http://www.w3.org/1999/xlink" width="2000" zoomAndPan="magnify" viewBox="0 0 1500 449.999984" height="600" preserveAspectRatio="xMidYMid meet" version="1.0"><defs><g/><clipPath id="a67bae719a"><path d="M 635 62 L 707 62 L 707 377 L 635 377 Z M 635 62 " clip-rule="nonzero"/></clipPath><clipPath id="03b0b5ef3b"><path d="M 514.167969 185.847656 L 675.78125 61.363281 L 823.148438 252.6875 L 661.535156 377.171875 Z M 514.167969 185.847656 " clip-rule="nonzero"/></clipPath><clipPath id="903829dc61"><path d="M 514.167969 185.847656 L 675.78125 61.363281 L 823.148438 252.6875 L 661.535156 377.171875 Z M 514.167969 185.847656 " clip-rule="nonzero"/></clipPath></defs><g clip-path="url(#a67bae719a)"><g clip-path="url(#03b0b5ef3b)"><g clip-path="url(#903829dc61)"><path fill="#ffc24a" d="M 675.648438 62.074219 C 675.105469 62.003906 674.578125 62.347656 674.457031 62.898438 L 635.707031 223.105469 C 635.613281 223.542969 635.792969 224.015625 636.175781 224.269531 C 636.554688 224.527344 637.054688 224.503906 637.417969 224.226562 L 659.09375 207.53125 L 642.640625 294.117188 C 642.546875 294.550781 642.765625 294.992188 643.132812 295.230469 C 643.496094 295.46875 644 295.445312 644.363281 295.167969 L 664.46875 279.679688 L 660.792969 375.65625 C 660.773438 376.1875 661.15625 376.683594 661.714844 376.773438 C 662 376.828125 662.289062 376.726562 662.519531 376.550781 C 662.710938 376.402344 662.835938 376.214844 662.921875 375.964844 L 706.128906 209.15625 C 706.253906 208.726562 706.058594 208.238281 705.675781 207.980469 C 705.296875 207.722656 704.796875 207.746094 704.433594 208.027344 L 684.632812 223.277344 L 696.769531 143.152344 C 696.828125 142.714844 696.625 142.292969 696.238281 142.070312 C 695.855469 141.847656 695.386719 141.871094 695.023438 142.152344 L 673.902344 158.417969 L 676.589844 63.175781 C 676.625 62.628906 676.222656 62.148438 675.648438 62.074219 Z M 675.648438 62.074219 " fill-opacity="1" fill-rule="nonzero"/></g></g></g><path stroke-linecap="butt" transform="matrix(3.133559, 0, 0, 3.133559, 5.931979, 65.794082)" fill="none" stroke-linejoin="miter" d="M 40.649178 30.223112 L 20.946893 30.223112 L 20.946893 52.185457 L 38.505051 52.185457 L 38.505051 53.530523 L 20.946893 53.530523 L 20.946893 79.078048 L 15.198887 79.078048 L 15.198887 28.878047 L 40.649178 28.878047 Z M 93.169076 79.078048 L 84.555169 58.889595 L 64.990009 58.889595 L 56.064456 79.078048 L 54.213276 79.078048 L 76.974682 27.923162 L 77.442152 27.923162 L 99.325962 79.078048 Z M 65.633247 57.603118 L 83.990466 57.603118 L 74.96768 36.537068 Z M 150.56811 28.878047 L 151.834641 28.878047 L 151.834641 60.486471 C 151.834641 73.790032 145.371094 80.441813 132.444002 80.441813 C 130.105407 80.441813 127.812936 80.162578 125.565342 79.604108 C 123.330214 79.045637 121.323212 78.052108 119.543087 76.622275 C 117.76421 75.179975 116.354321 73.154274 115.314669 70.542677 C 114.275017 67.93108 113.756437 64.579011 113.756437 60.486471 L 113.756437 28.878047 L 119.504443 28.878047 L 119.504443 60.486471 C 119.504443 61.655768 119.569266 63.0133 119.700157 64.560313 C 119.842268 66.092366 120.147681 67.658078 120.615151 69.256201 C 121.096333 70.854323 121.843038 72.347733 122.856512 73.738922 C 123.869986 75.115153 125.253696 76.245806 127.007642 77.129635 C 128.761588 77.999752 130.969291 78.43481 133.633244 78.43481 C 135.919482 78.43481 138.076075 78.168041 140.103024 77.635749 C 142.129972 77.103457 143.922562 76.161038 145.480794 74.809739 C 147.052738 73.459687 148.294337 71.57485 149.203098 69.158967 C 150.113106 66.729372 150.56811 63.597949 150.56811 59.765944 Z M 173.31331 77.714284 L 193.268653 77.714284 L 193.268653 79.078048 L 167.565304 79.078048 L 167.565304 28.878047 L 173.31331 28.878047 Z M 286.967012 27.923162 L 292.950623 79.078048 L 287.20137 78.999514 L 282.485537 38.855718 L 261.906902 77.714284 L 261.653845 77.714284 L 241.795736 39.480257 L 236.436665 79.078048 L 235.0729 79.078048 L 242.030095 27.923162 L 242.263206 27.923162 L 264.304086 70.464142 L 286.733901 27.923162 Z M 345.863195 79.078048 L 337.249289 58.889595 L 317.684128 58.889595 L 308.758575 79.078048 L 306.907395 79.078048 L 329.668802 27.923162 L 330.136271 27.923162 L 352.020081 79.078048 Z M 318.327366 57.603118 L 336.684585 57.603118 L 327.661799 36.537068 Z M 402.131576 28.878047 L 402.131576 30.223112 L 386.657709 30.223112 L 386.657709 79.078048 L 380.986991 79.078048 L 380.986991 30.223112 L 365.495672 30.223112 L 365.495672 28.878047 Z M 454.490664 79.078048 L 445.876757 58.889595 L 426.311596 58.889595 L 417.386043 79.078048 L 415.534864 79.078048 L 438.29627 27.923162 L 438.76374 27.923162 L 460.648796 79.078048 Z M 426.954834 57.603118 L 445.312054 57.603118 L 436.289267 36.537068 Z M 426.954834 57.603118 " stroke="#03346e" stroke-width="2.594397" stroke-opacity="1" stroke-miterlimit="4"/><g fill="#03346e" fill-opacity="1"><g transform="translate(41.527256, 313.345274)"><g><path d="M 91.796875 -152.828125 L 30.015625 -152.828125 L 30.015625 -84.046875 L 85.046875 -84.046875 L 85.046875 -79.796875 L 30.015625 -79.796875 L 30.015625 0.25 L 12 0.25 L 12 -157.078125 L 91.796875 -157.078125 Z M 91.796875 -152.828125 "/></g></g></g><g fill="#03346e" fill-opacity="1"><g transform="translate(167.08084, 313.345274)"><g><path d="M 130.8125 0.25 L 103.796875 -63.03125 L 42.515625 -63.03125 L 14.5 0.25 L 8.75 0.25 L 80.046875 -160.078125 L 81.546875 -160.078125 L 150.078125 0.25 Z M 44.515625 -67.03125 L 102.046875 -67.03125 L 73.78125 -133.0625 Z M 44.515625 -67.03125 "/></g></g></g><g fill="#03346e" fill-opacity="1"><g transform="translate(351.157192, 313.345274)"><g><path d="M 126.5625 -157.078125 L 130.5625 -157.078125 L 130.5625 -58.03125 C 130.5625 -16.34375 110.300781 4.5 69.78125 4.5 C 62.445312 4.5 55.273438 3.625 48.265625 1.875 C 41.265625 0.125 34.972656 -3 29.390625 -7.5 C 23.804688 -12 19.382812 -18.332031 16.125 -26.5 C 12.875 -34.675781 11.25 -45.1875 11.25 -58.03125 L 11.25 -157.078125 L 29.265625 -157.078125 L 29.265625 -58.03125 C 29.265625 -54.363281 29.472656 -50.109375 29.890625 -45.265625 C 30.304688 -40.429688 31.265625 -35.515625 32.765625 -30.515625 C 34.265625 -25.515625 36.597656 -20.84375 39.765625 -16.5 C 42.929688 -12.164062 47.265625 -8.625 52.765625 -5.875 C 58.273438 -3.125 65.195312 -1.75 73.53125 -1.75 C 80.707031 -1.75 87.460938 -2.582031 93.796875 -4.25 C 100.128906 -5.914062 105.753906 -8.875 110.671875 -13.125 C 115.597656 -17.382812 119.476562 -23.304688 122.3125 -30.890625 C 125.144531 -38.472656 126.5625 -48.269531 126.5625 -60.28125 Z M 126.5625 -157.078125 "/></g></g></g><g fill="#03346e" fill-opacity="1"><g transform="translate(518.977213, 313.345274)"><g><path d="M 30.015625 -4 L 92.546875 -4 L 92.546875 0.25 L 12 0.25 L 12 -157.078125 L 30.015625 -157.078125 Z M 30.015625 -4 "/></g></g></g><g fill="#03346e" fill-opacity="1"><g transform="translate(646.031342, 313.345274)"><g/></g></g><g fill="#03346e" fill-opacity="1"><g transform="translate(733.570091, 313.345274)"><g><path d="M 171.578125 -160.078125 L 190.34375 0.25 L 172.34375 0 L 157.578125 -125.8125 L 93.046875 -4 L 92.296875 -4 L 30.015625 -123.8125 L 13.25 0.25 L 9 0.25 L 30.765625 -160.078125 L 31.515625 -160.078125 L 100.546875 -26.765625 L 170.828125 -160.078125 Z M 171.578125 -160.078125 "/></g></g></g><g fill="#03346e" fill-opacity="1"><g transform="translate(958.912535, 313.345274)"><g><path d="M 130.8125 0.25 L 103.796875 -63.03125 L 42.515625 -63.03125 L 14.5 0.25 L 8.75 0.25 L 80.046875 -160.078125 L 81.546875 -160.078125 L 150.078125 0.25 Z M 44.515625 -67.03125 L 102.046875 -67.03125 L 73.78125 -133.0625 Z M 44.515625 -67.03125 "/></g></g></g><g fill="#03346e" fill-opacity="1"><g transform="translate(1142.988876, 313.345274)"><g><path d="M 123.0625 -157.078125 L 123.0625 -152.828125 L 74.53125 -152.828125 L 74.53125 0.25 L 56.78125 0.25 L 56.78125 -152.828125 L 8.25 -152.828125 L 8.25 -157.078125 Z M 123.0625 -157.078125 "/></g></g></g><g fill="#03346e" fill-opacity="1"><g transform="translate(1299.304412, 313.345274)"><g><path d="M 130.8125 0.25 L 103.796875 -63.03125 L 42.515625 -63.03125 L 14.5 0.25 L 8.75 0.25 L 80.046875 -160.078125 L 81.546875 -160.078125 L 150.078125 0.25 Z M 44.515625 -67.03125 L 102.046875 -67.03125 L 73.78125 -133.0625 Z M 44.515625 -67.03125 "/></g></g></g></svg>