<svg xmlns="http://www.w3.org/2000/svg" xmlns:xlink="http://www.w3.org/1999/xlink" width="2000" zoomAndPan="magnify" viewBox="0 0 1500 449.999984" height="600" preserveAspectRatio="xMidYMid meet" version="1.0"><defs><g/><clipPath id="8229e00729"><path d="M 137 138 L 234 138 L 234 235 L 137 235 Z M 137 138 " clip-rule="nonzero"/></clipPath><clipPath id="f984d16852"><path d="M 137.585938 219.292969 L 218.285156 138.59375 L 233.621094 153.933594 L 152.921875 234.632812 Z M 137.585938 219.292969 " clip-rule="nonzero"/></clipPath><clipPath id="d738e21953"><path d="M 137 138 L 234 138 L 234 235 L 137 235 Z M 137 138 " clip-rule="nonzero"/></clipPath><clipPath id="06c72beea8"><path d="M 137.585938 219.292969 L 218.195312 138.683594 L 233.574219 154.0625 L 152.964844 234.675781 Z M 137.585938 219.292969 " clip-rule="nonzero"/></clipPath><clipPath id="443edd74ff"><path d="M 137.601562 219.28125 L 218.265625 138.617188 L 233.59375 153.945312 L 152.929688 234.609375 Z M 137.601562 219.28125 " clip-rule="nonzero"/></clipPath><clipPath id="b34d20d4c5"><path d="M 143 173 L 240 173 L 240 270 L 143 270 Z M 143 173 " clip-rule="nonzero"/></clipPath><clipPath id="215b7e59e0"><path d="M 143.570312 254.457031 L 224.269531 173.757812 L 239.605469 189.097656 L 158.90625 269.796875 Z M 143.570312 254.457031 " clip-rule="nonzero"/></clipPath><clipPath id="e7488d56d0"><path d="M 143 173 L 240 173 L 240 270 L 143 270 Z M 143 173 " clip-rule="nonzero"/></clipPath><clipPath id="b6a8dc4927"><path d="M 143.570312 254.457031 L 224.179688 173.847656 L 239.558594 189.226562 L 158.949219 269.839844 Z M 143.570312 254.457031 " clip-rule="nonzero"/></clipPath><clipPath id="f20d698aff"><path d="M 143.585938 254.445312 L 224.25 173.78125 L 239.578125 189.109375 L 158.914062 269.773438 Z M 143.585938 254.445312 " clip-rule="nonzero"/></clipPath><clipPath id="b9c551f25d"><path d="M 178 179 L 275 179 L 275 276 L 178 276 Z M 178 179 " clip-rule="nonzero"/></clipPath><clipPath id="ab21158384"><path d="M 178.640625 260.347656 L 259.339844 179.648438 L 274.675781 194.984375 L 193.976562 275.6875 Z M 178.640625 260.347656 " clip-rule="nonzero"/></clipPath><clipPath id="1c306a46d9"><path d="M 178 179 L 275 179 L 275 276 L 178 276 Z M 178 179 " clip-rule="nonzero"/></clipPath><clipPath id="970225b188"><path d="M 178.640625 260.347656 L 259.25 179.738281 L 274.628906 195.117188 L 194.019531 275.730469 Z M 178.640625 260.347656 " clip-rule="nonzero"/></clipPath><clipPath id="4b6cca5ca1"><path d="M 178.65625 260.335938 L 259.320312 179.671875 L 274.648438 195 L 193.984375 275.664062 Z M 178.65625 260.335938 " clip-rule="nonzero"/></clipPath><clipPath id="7cffc33773"><path d="M 184 214 L 281 214 L 281 311 L 184 311 Z M 184 214 " clip-rule="nonzero"/></clipPath><clipPath id="a4fe17f7d5"><path d="M 184.625 295.511719 L 265.324219 214.8125 L 280.660156 230.148438 L 199.960938 310.847656 Z M 184.625 295.511719 " clip-rule="nonzero"/></clipPath><clipPath id="5a13355f52"><path d="M 184 214 L 281 214 L 281 311 L 184 311 Z M 184 214 " clip-rule="nonzero"/></clipPath><clipPath id="af44f4a77f"><path d="M 184.625 295.511719 L 265.234375 214.902344 L 280.613281 230.28125 L 200.003906 310.890625 Z M 184.625 295.511719 " clip-rule="nonzero"/></clipPath><clipPath id="ecb2f50184"><path d="M 184.640625 295.496094 L 265.300781 214.835938 L 280.632812 230.164062 L 199.96875 310.828125 Z M 184.640625 295.496094 " clip-rule="nonzero"/></clipPath><clipPath id="bbd32c5741"><path d="M 245 267 L 263 267 L 263 285 L 245 285 Z M 245 267 " clip-rule="nonzero"/></clipPath><clipPath id="366dbe9dba"><path d="M 245.453125 275.644531 L 253.304688 267.792969 L 262.527344 277.015625 L 254.675781 284.867188 Z M 245.453125 275.644531 " clip-rule="nonzero"/></clipPath><clipPath id="0dfeb9753f"><path d="M 245 267 L 263 267 L 263 285 L 245 285 Z M 245 267 " clip-rule="nonzero"/></clipPath><clipPath id="aeb69bddc8"><path d="M 245.453125 275.644531 L 253.410156 267.691406 L 262.425781 276.707031 L 254.46875 284.660156 Z M 245.453125 275.644531 " clip-rule="nonzero"/></clipPath><clipPath id="249230e0aa"><path d="M 245.457031 275.644531 L 253.300781 267.796875 L 262.515625 277.011719 L 254.671875 284.859375 Z M 245.457031 275.644531 " clip-rule="nonzero"/></clipPath><clipPath id="0d2f9a1b30"><path d="M 149 172 L 166 172 L 166 189 L 149 189 Z M 149 172 " clip-rule="nonzero"/></clipPath><clipPath id="778f9925d0"><path d="M 149.527344 179.71875 L 157.070312 172.175781 L 165.746094 180.851562 L 158.203125 188.394531 Z M 149.527344 179.71875 " clip-rule="nonzero"/></clipPath><clipPath id="7e82a0ba5d"><path d="M 149 172 L 166 172 L 166 189 L 149 189 Z M 149 172 " clip-rule="nonzero"/></clipPath><clipPath id="35ec0033ef"><path d="M 149.527344 179.71875 L 156.953125 172.292969 L 165.4375 180.777344 L 158.015625 188.203125 Z M 149.527344 179.71875 " clip-rule="nonzero"/></clipPath><clipPath id="967b1ef22e"><path d="M 149.53125 179.714844 L 157.066406 172.179688 L 165.734375 180.847656 L 158.199219 188.382812 Z M 149.53125 179.714844 " clip-rule="nonzero"/></clipPath><clipPath id="8951aeffbb"><path d="M 166 270 L 184 270 L 184 288 L 166 288 Z M 166 270 " clip-rule="nonzero"/></clipPath><clipPath id="d5ea7f64a7"><path d="M 166.894531 278.09375 L 174.746094 270.242188 L 183.964844 279.464844 L 176.117188 287.3125 Z M 166.894531 278.09375 " clip-rule="nonzero"/></clipPath><clipPath id="20d132170d"><path d="M 166 270 L 184 270 L 184 288 L 166 288 Z M 166 270 " clip-rule="nonzero"/></clipPath><clipPath id="e2ea72976b"><path d="M 166.894531 278.09375 L 174.847656 270.136719 L 183.863281 279.152344 L 175.910156 287.109375 Z M 166.894531 278.09375 " clip-rule="nonzero"/></clipPath><clipPath id="1469885ea7"><path d="M 166.894531 278.089844 L 174.742188 270.246094 L 183.953125 279.460938 L 176.109375 287.304688 Z M 166.894531 278.089844 " clip-rule="nonzero"/></clipPath><clipPath id="2a6aa8b6cd"><path d="M 275 203 L 293 203 L 293 221 L 275 221 Z M 275 203 " clip-rule="nonzero"/></clipPath><clipPath id="95674b16fb"><path d="M 275.121094 211.132812 L 282.972656 203.28125 L 292.195312 212.503906 L 284.34375 220.355469 Z M 275.121094 211.132812 " clip-rule="nonzero"/></clipPath><clipPath id="2ead3c1139"><path d="M 275 203 L 293 203 L 293 221 L 275 221 Z M 275 203 " clip-rule="nonzero"/></clipPath><clipPath id="1c32fcc1de"><path d="M 275.121094 211.132812 L 283.074219 203.179688 L 292.089844 212.195312 L 284.136719 220.148438 Z M 275.121094 211.132812 " clip-rule="nonzero"/></clipPath><clipPath id="1e886dd27e"><path d="M 275.121094 211.132812 L 282.96875 203.289062 L 292.179688 212.5 L 284.335938 220.347656 Z M 275.121094 211.132812 " clip-rule="nonzero"/></clipPath><clipPath id="94842fa02d"><path d="M 126 229 L 143 229 L 143 246 L 126 246 Z M 126 229 " clip-rule="nonzero"/></clipPath><clipPath id="d4437c97d9"><path d="M 126.328125 237.21875 L 133.871094 229.675781 L 142.546875 238.351562 L 135.003906 245.894531 Z M 126.328125 237.21875 " clip-rule="nonzero"/></clipPath><clipPath id="c742f201f8"><path d="M 126 229 L 143 229 L 143 246 L 126 246 Z M 126 229 " clip-rule="nonzero"/></clipPath><clipPath id="f3fc413fb0"><path d="M 126.328125 237.21875 L 133.753906 229.792969 L 142.238281 238.277344 L 134.8125 245.703125 Z M 126.328125 237.21875 " clip-rule="nonzero"/></clipPath><clipPath id="11f61e5782"><path d="M 126.332031 237.214844 L 133.867188 229.679688 L 142.535156 238.347656 L 135 245.882812 Z M 126.332031 237.214844 " clip-rule="nonzero"/></clipPath><clipPath id="8fe8c45821"><path d="M 234 161 L 252 161 L 252 179 L 234 179 Z M 234 161 " clip-rule="nonzero"/></clipPath><clipPath id="f22ac0f1d9"><path d="M 234.066406 169.769531 L 241.917969 161.921875 L 251.140625 171.140625 L 243.289062 178.992188 Z M 234.066406 169.769531 " clip-rule="nonzero"/></clipPath><clipPath id="d79c678849"><path d="M 234 161 L 252 161 L 252 179 L 234 179 Z M 234 161 " clip-rule="nonzero"/></clipPath><clipPath id="56dfd736c9"><path d="M 234.066406 169.769531 L 242.023438 161.816406 L 251.039062 170.832031 L 243.082031 178.785156 Z M 234.066406 169.769531 " clip-rule="nonzero"/></clipPath><clipPath id="a9fc8395f2"><path d="M 234.070312 169.769531 L 241.914062 161.925781 L 251.128906 171.140625 L 243.285156 178.984375 Z M 234.070312 169.769531 " clip-rule="nonzero"/></clipPath></defs><rect x="-150" width="1800" fill="#ffffff" y="-44.999998" height="539.99998" fill-opacity="1"/><rect x="-150" width="1800" fill="#ffffff" y="-44.999998" height="539.99998" fill-opacity="1"/><path stroke-linecap="butt" transform="matrix(2.134961, 0, 0, 2.134961, 266.408942, 101.878821)" fill="none" stroke-linejoin="miter" d="M 54.617703 30.224168 L 34.915941 30.224168 L 34.915941 52.185558 L 52.473344 52.185558 L 52.473344 53.530357 L 34.915941 53.530357 L 34.915941 79.077878 L 29.167154 79.077878 L 29.167154 28.879369 L 54.617703 28.879369 Z M 107.138049 79.077878 L 98.524017 58.889427 L 78.959479 58.889427 L 70.034406 79.077878 L 68.182791 79.077878 L 90.943742 27.924287 L 91.410305 27.924287 L 113.29485 79.077878 Z M 79.60169 57.603177 L 97.958653 57.603177 L 88.936607 36.53649 Z M 164.536265 28.879369 L 165.802388 28.879369 L 165.802388 60.486719 C 165.802388 73.790165 159.340035 80.442804 146.413498 80.442804 C 144.075194 80.442804 141.780802 80.162866 139.533982 79.60482 C 137.299969 79.044944 135.292834 78.05144 133.512576 76.622477 C 131.732318 75.180706 130.323481 73.153444 129.284235 70.542522 C 128.244989 67.931599 127.725366 64.579665 127.725366 60.486719 L 127.725366 28.879369 L 133.474153 28.879369 L 133.474153 60.486719 C 133.474153 61.655871 133.538191 63.013477 133.668097 64.559539 C 133.81081 66.092792 134.116363 67.65898 134.584756 69.256272 C 135.064126 70.853564 135.812457 72.348395 136.826087 73.738935 C 137.837888 75.114838 139.22294 76.245567 140.975753 77.129292 C 142.730395 78.00021 144.938793 78.435668 147.600946 78.435668 C 149.888019 78.435668 152.045186 78.168538 154.072448 77.636107 C 156.09788 77.103677 157.890945 76.161403 159.449814 74.811115 C 161.021491 73.458997 162.261999 71.574449 163.171339 69.1593 C 164.08068 66.729513 164.536265 63.598968 164.536265 59.765833 Z M 187.282579 77.712953 L 207.236834 77.712953 L 207.236834 79.077878 L 181.533792 79.077878 L 181.533792 28.879369 L 187.282579 28.879369 Z M 273.000247 27.924287 L 278.983231 79.077878 L 273.234444 78.999203 L 268.517584 38.856497 L 247.939416 77.712953 L 247.686923 77.712953 L 227.82964 39.48041 L 222.47057 79.077878 L 221.105645 79.077878 L 228.062006 27.924287 L 228.296202 27.924287 L 250.336268 70.463846 L 272.766051 27.924287 Z M 331.895123 79.077878 L 323.282921 58.889427 L 303.716554 58.889427 L 294.79148 79.077878 L 292.939865 79.077878 L 315.700816 27.924287 L 316.169209 27.924287 L 338.053754 79.077878 Z M 304.360593 57.603177 L 322.717557 57.603177 L 313.693681 36.53649 Z M 388.164439 28.879369 L 388.164439 30.224168 L 372.691018 30.224168 L 372.691018 79.077878 L 367.020906 79.077878 L 367.020906 30.224168 L 351.527359 30.224168 L 351.527359 28.879369 Z M 440.523775 79.077878 L 431.909743 58.889427 L 412.345206 58.889427 L 403.420132 79.077878 L 401.568517 79.077878 L 424.329468 27.924287 L 424.797861 27.924287 L 446.680576 79.077878 Z M 412.987416 57.603177 L 431.344379 57.603177 L 422.322333 36.53649 Z M 412.987416 57.603177 " stroke="#03346e" stroke-width="2.195259" stroke-opacity="1" stroke-miterlimit="4"/><g fill="#03346e" fill-opacity="1"><g transform="translate(320.483508, 270.540764)"><g><path d="M 62.546875 -104.125 L 20.453125 -104.125 L 20.453125 -57.25 L 57.9375 -57.25 L 57.9375 -54.359375 L 20.453125 -54.359375 L 20.453125 0.171875 L 8.171875 0.171875 L 8.171875 -107.015625 L 62.546875 -107.015625 Z M 62.546875 -104.125 "/></g></g></g><g fill="#03346e" fill-opacity="1"><g transform="translate(406.025861, 270.540764)"><g><path d="M 89.125 0.171875 L 70.71875 -42.9375 L 28.96875 -42.9375 L 9.890625 0.171875 L 5.96875 0.171875 L 54.53125 -109.0625 L 55.546875 -109.0625 L 102.25 0.171875 Z M 30.328125 -45.671875 L 69.53125 -45.671875 L 50.265625 -90.65625 Z M 30.328125 -45.671875 "/></g></g></g><g fill="#03346e" fill-opacity="1"><g transform="translate(531.441033, 270.540764)"><g><path d="M 86.21875 -107.015625 L 88.953125 -107.015625 L 88.953125 -39.53125 C 88.953125 -11.132812 75.148438 3.0625 47.546875 3.0625 C 42.546875 3.0625 37.660156 2.460938 32.890625 1.265625 C 28.117188 0.078125 23.828125 -2.046875 20.015625 -5.109375 C 16.210938 -8.179688 13.203125 -12.5 10.984375 -18.0625 C 8.773438 -23.625 7.671875 -30.78125 7.671875 -39.53125 L 7.671875 -107.015625 L 19.9375 -107.015625 L 19.9375 -39.53125 C 19.9375 -37.03125 20.078125 -34.132812 20.359375 -30.84375 C 20.648438 -27.550781 21.304688 -24.195312 22.328125 -20.78125 C 23.347656 -17.375 24.9375 -14.191406 27.09375 -11.234375 C 29.25 -8.285156 32.203125 -5.875 35.953125 -4 C 39.703125 -2.125 44.414062 -1.1875 50.09375 -1.1875 C 54.976562 -1.1875 59.578125 -1.753906 63.890625 -2.890625 C 68.210938 -4.023438 72.050781 -6.039062 75.40625 -8.9375 C 78.757812 -11.84375 81.398438 -15.878906 83.328125 -21.046875 C 85.253906 -26.210938 86.21875 -32.882812 86.21875 -41.0625 Z M 86.21875 -107.015625 "/></g></g></g><g fill="#03346e" fill-opacity="1"><g transform="translate(645.780417, 270.540764)"><g><path d="M 20.453125 -2.71875 L 63.046875 -2.71875 L 63.046875 0.171875 L 8.171875 0.171875 L 8.171875 -107.015625 L 20.453125 -107.015625 Z M 20.453125 -2.71875 "/></g></g></g><g fill="#03346e" fill-opacity="1"><g transform="translate(732.345124, 270.540764)"><g><path d="M 116.90625 -109.0625 L 129.671875 0.171875 L 117.40625 0 L 107.359375 -85.71875 L 63.390625 -2.71875 L 62.875 -2.71875 L 20.453125 -84.34375 L 9.03125 0.171875 L 6.140625 0.171875 L 20.953125 -109.0625 L 21.46875 -109.0625 L 68.5 -18.234375 L 116.390625 -109.0625 Z M 116.90625 -109.0625 "/></g></g></g><g fill="#03346e" fill-opacity="1"><g transform="translate(885.875704, 270.540764)"><g><path d="M 89.125 0.171875 L 70.71875 -42.9375 L 28.96875 -42.9375 L 9.890625 0.171875 L 5.96875 0.171875 L 54.53125 -109.0625 L 55.546875 -109.0625 L 102.25 0.171875 Z M 30.328125 -45.671875 L 69.53125 -45.671875 L 50.265625 -90.65625 Z M 30.328125 -45.671875 "/></g></g></g><g fill="#03346e" fill-opacity="1"><g transform="translate(1011.290867, 270.540764)"><g><path d="M 83.84375 -107.015625 L 83.84375 -104.125 L 50.78125 -104.125 L 50.78125 0.171875 L 38.6875 0.171875 L 38.6875 -104.125 L 5.625 -104.125 L 5.625 -107.015625 Z M 83.84375 -107.015625 "/></g></g></g><g fill="#03346e" fill-opacity="1"><g transform="translate(1117.791999, 270.540764)"><g><path d="M 89.125 0.171875 L 70.71875 -42.9375 L 28.96875 -42.9375 L 9.890625 0.171875 L 5.96875 0.171875 L 54.53125 -109.0625 L 55.546875 -109.0625 L 102.25 0.171875 Z M 30.328125 -45.671875 L 69.53125 -45.671875 L 50.265625 -90.65625 Z M 30.328125 -45.671875 "/></g></g></g><g clip-path="url(#8229e00729)"><g clip-path="url(#f984d16852)"><path fill="#000000" d="M 137.585938 219.292969 L 218.285156 138.597656 L 233.621094 153.933594 L 152.921875 234.632812 Z M 137.585938 219.292969 " fill-opacity="1" fill-rule="nonzero"/></g></g><g clip-path="url(#d738e21953)"><g clip-path="url(#06c72beea8)"><g clip-path="url(#443edd74ff)"><path stroke-linecap="butt" transform="matrix(0.53033, -0.53033, 0.53033, 0.53033, 137.60111, 219.279957)" fill="none" stroke-linejoin="miter" d="M -0.000792175 0.00164532 L 152.100834 0.00164532 L 152.100834 28.904637 L -0.000792175 28.904637 Z M -0.000792175 0.00164532 " stroke="#000000" stroke-width="4" stroke-opacity="1" stroke-miterlimit="4"/></g></g></g><g clip-path="url(#b34d20d4c5)"><g clip-path="url(#215b7e59e0)"><path fill="#000000" d="M 143.570312 254.457031 L 224.269531 173.761719 L 239.605469 189.097656 L 158.90625 269.796875 Z M 143.570312 254.457031 " fill-opacity="1" fill-rule="nonzero"/></g></g><g clip-path="url(#e7488d56d0)"><g clip-path="url(#b6a8dc4927)"><g clip-path="url(#f20d698aff)"><path stroke-linecap="butt" transform="matrix(0.53033, -0.53033, 0.53033, 0.53033, 143.585142, 254.443691)" fill="none" stroke-linejoin="miter" d="M -0.000778762 0.00227805 L 152.100847 0.00227805 L 152.100847 28.90527 L -0.000778762 28.90527 Z M -0.000778762 0.00227805 " stroke="#000000" stroke-width="4" stroke-opacity="1" stroke-miterlimit="4"/></g></g></g><g clip-path="url(#b9c551f25d)"><g clip-path="url(#ab21158384)"><path fill="#000000" d="M 178.640625 260.347656 L 259.335938 179.652344 L 274.675781 194.988281 L 193.976562 275.6875 Z M 178.640625 260.347656 " fill-opacity="1" fill-rule="nonzero"/></g></g><g clip-path="url(#1c306a46d9)"><g clip-path="url(#970225b188)"><g clip-path="url(#4b6cca5ca1)"><path stroke-linecap="butt" transform="matrix(0.53033, -0.53033, 0.53033, 0.53033, 178.655185, 260.334121)" fill="none" stroke-linejoin="miter" d="M -0.000708454 0.00271616 L 152.100918 0.00271616 L 152.100918 28.905708 L -0.000708454 28.905708 Z M -0.000708454 0.00271616 " stroke="#000000" stroke-width="4" stroke-opacity="1" stroke-miterlimit="4"/></g></g></g><g clip-path="url(#7cffc33773)"><g clip-path="url(#a4fe17f7d5)"><path fill="#000000" d="M 184.625 295.511719 L 265.320312 214.816406 L 280.660156 230.152344 L 199.960938 310.847656 Z M 184.625 295.511719 " fill-opacity="1" fill-rule="nonzero"/></g></g><g clip-path="url(#5a13355f52)"><g clip-path="url(#af44f4a77f)"><g clip-path="url(#ecb2f50184)"><path stroke-linecap="butt" transform="matrix(0.53033, -0.53033, 0.53033, 0.53033, 184.639232, 295.497867)" fill="none" stroke-linejoin="miter" d="M 0.00298555 -0.000358851 L 152.097246 -0.000358851 L 152.100929 28.906316 L -0.000697303 28.906316 Z M 0.00298555 -0.000358851 " stroke="#000000" stroke-width="4" stroke-opacity="1" stroke-miterlimit="4"/></g></g></g><g clip-path="url(#bbd32c5741)"><g clip-path="url(#366dbe9dba)"><path fill="#000000" d="M 245.453125 275.644531 L 253.304688 267.792969 L 262.535156 277.023438 L 254.6875 284.875 Z M 245.453125 275.644531 " fill-opacity="1" fill-rule="nonzero"/></g></g><g clip-path="url(#0dfeb9753f)"><g clip-path="url(#aeb69bddc8)"><g clip-path="url(#249230e0aa)"><path stroke-linecap="butt" transform="matrix(0.53033, -0.53033, 0.53033, 0.53033, 245.456302, 275.643288)" fill="none" stroke-linejoin="miter" d="M -0.000484904 0.00185915 L 14.793516 -0.0018237 L 14.793516 17.373854 L -0.000484904 17.377536 Z M -0.000484904 0.00185915 " stroke="#000000" stroke-width="4" stroke-opacity="1" stroke-miterlimit="4"/></g></g></g><g clip-path="url(#0d2f9a1b30)"><g clip-path="url(#778f9925d0)"><path fill="#000000" d="M 149.527344 179.71875 L 157.070312 172.175781 L 165.730469 180.835938 L 158.191406 188.378906 Z M 149.527344 179.71875 " fill-opacity="1" fill-rule="nonzero"/></g></g><g clip-path="url(#7e82a0ba5d)"><g clip-path="url(#35ec0033ef)"><g clip-path="url(#967b1ef22e)"><path stroke-linecap="butt" transform="matrix(0.53033, -0.53033, 0.53033, 0.53033, 149.531574, 179.715075)" fill="none" stroke-linejoin="miter" d="M -0.0000875564 -0.000523233 L 14.208339 -0.000523233 L 14.208339 16.343955 L -0.0000875564 16.343955 Z M -0.0000875564 -0.000523233 " stroke="#000000" stroke-width="4" stroke-opacity="1" stroke-miterlimit="4"/></g></g></g><g clip-path="url(#8951aeffbb)"><g clip-path="url(#d5ea7f64a7)"><path fill="#000000" d="M 166.894531 278.09375 L 174.746094 270.242188 L 183.976562 279.472656 L 176.125 287.324219 Z M 166.894531 278.09375 " fill-opacity="1" fill-rule="nonzero"/></g></g><g clip-path="url(#20d132170d)"><g clip-path="url(#e2ea72976b)"><g clip-path="url(#1469885ea7)"><path stroke-linecap="butt" transform="matrix(0.53033, -0.53033, 0.53033, 0.53033, 166.89558, 278.090983)" fill="none" stroke-linejoin="miter" d="M 0.0000856754 -0.00206278 L 14.794086 0.00162007 L 14.790404 17.373615 L 0.0000856754 17.373615 Z M 0.0000856754 -0.00206278 " stroke="#000000" stroke-width="4" stroke-opacity="1" stroke-miterlimit="4"/></g></g></g><g clip-path="url(#2a6aa8b6cd)"><g clip-path="url(#95674b16fb)"><path fill="#000000" d="M 275.121094 211.132812 L 282.972656 203.28125 L 292.203125 212.511719 L 284.351562 220.363281 Z M 275.121094 211.132812 " fill-opacity="1" fill-rule="nonzero"/></g></g><g clip-path="url(#2ead3c1139)"><g clip-path="url(#1c32fcc1de)"><g clip-path="url(#1e886dd27e)"><path stroke-linecap="butt" transform="matrix(0.53033, -0.53033, 0.53033, 0.53033, 275.122417, 211.131927)" fill="none" stroke-linejoin="miter" d="M -0.0020826 -0.000412425 L 14.791918 0.00327042 L 14.791918 17.371582 L -0.0020826 17.375265 Z M -0.0020826 -0.000412425 " stroke="#000000" stroke-width="4" stroke-opacity="1" stroke-miterlimit="4"/></g></g></g><g clip-path="url(#94842fa02d)"><g clip-path="url(#d4437c97d9)"><path fill="#000000" d="M 126.328125 237.21875 L 133.871094 229.675781 L 142.53125 238.335938 L 134.988281 245.878906 Z M 126.328125 237.21875 " fill-opacity="1" fill-rule="nonzero"/></g></g><g clip-path="url(#c742f201f8)"><g clip-path="url(#f3fc413fb0)"><g clip-path="url(#11f61e5782)"><path stroke-linecap="butt" transform="matrix(0.53033, -0.53033, 0.53033, 0.53033, 126.33157, 237.214522)" fill="none" stroke-linejoin="miter" d="M 0.000131707 0.000737795 L 14.208558 0.000737795 L 14.208558 16.345216 L 0.000131707 16.345216 Z M 0.000131707 0.000737795 " stroke="#000000" stroke-width="4" stroke-opacity="1" stroke-miterlimit="4"/></g></g></g><g clip-path="url(#8fe8c45821)"><g clip-path="url(#f22ac0f1d9)"><path fill="#000000" d="M 234.066406 169.769531 L 241.917969 161.921875 L 251.148438 171.152344 L 243.296875 179 Z M 234.066406 169.769531 " fill-opacity="1" fill-rule="nonzero"/></g></g><g clip-path="url(#d79c678849)"><g clip-path="url(#56dfd736c9)"><g clip-path="url(#a9fc8395f2)"><path stroke-linecap="butt" transform="matrix(0.53033, -0.53033, 0.53033, 0.53033, 234.069151, 169.769665)" fill="none" stroke-linejoin="miter" d="M 0.00122178 0.000969243 L 14.79154 0.000969243 L 14.79154 17.376647 L 0.00122178 17.376647 Z M 0.00122178 0.000969243 " stroke="#000000" stroke-width="4" stroke-opacity="1" stroke-miterlimit="4"/></g></g></g></svg>