<svg xmlns="http://www.w3.org/2000/svg" xmlns:xlink="http://www.w3.org/1999/xlink" width="500" zoomAndPan="magnify" viewBox="0 0 375 374.999991" height="5000000" preserveAspectRatio="xMidYMid meet" version="1.0"><defs><g/><clipPath id="8369242c61"><path d="M 160 148 L 178 148 L 178 224 L 160 224 Z M 160 148 " clip-rule="nonzero"/></clipPath><clipPath id="016c12be42"><path d="M 131.207031 178.152344 L 169.726562 148.484375 L 204.871094 194.113281 L 166.351562 223.78125 Z M 131.207031 178.152344 " clip-rule="nonzero"/></clipPath><clipPath id="6bdc331c06"><path d="M 131.207031 178.152344 L 169.726562 148.484375 L 204.871094 194.113281 L 166.351562 223.78125 Z M 131.207031 178.152344 " clip-rule="nonzero"/></clipPath></defs><g clip-path="url(#8369242c61)"><g clip-path="url(#016c12be42)"><g clip-path="url(#6bdc331c06)"><path fill="#c8d0d6" d="M 169.75 148.609375 C 169.621094 148.59375 169.496094 148.675781 169.464844 148.804688 L 160.214844 187.046875 C 160.195312 187.148438 160.238281 187.261719 160.328125 187.324219 C 160.417969 187.382812 160.539062 187.378906 160.625 187.3125 L 165.796875 183.328125 L 161.871094 203.992188 C 161.847656 204.097656 161.902344 204.203125 161.988281 204.261719 C 162.074219 204.316406 162.195312 204.3125 162.28125 204.246094 L 167.082031 200.546875 L 166.203125 223.457031 C 166.199219 223.582031 166.292969 223.703125 166.425781 223.722656 C 166.492188 223.734375 166.5625 223.710938 166.617188 223.667969 C 166.660156 223.632812 166.691406 223.589844 166.710938 223.53125 L 177.023438 183.714844 C 177.054688 183.613281 177.007812 183.496094 176.917969 183.433594 C 176.828125 183.375 176.707031 183.378906 176.621094 183.445312 L 171.894531 187.085938 L 174.792969 167.960938 C 174.804688 167.855469 174.757812 167.753906 174.664062 167.703125 C 174.574219 167.648438 174.460938 167.65625 174.375 167.722656 L 169.332031 171.605469 L 169.972656 148.871094 C 169.984375 148.742188 169.886719 148.625 169.75 148.609375 Z M 169.75 148.609375 " fill-opacity="1" fill-rule="nonzero"/></g></g></g><path stroke-linecap="butt" transform="matrix(0.747995, 0, 0, 0.747995, 9.887565, 149.496801)" fill="none" stroke-linejoin="miter" d="M 40.649211 30.225695 L 20.945493 30.225695 L 20.945493 52.185445 L 38.502848 52.185445 L 38.502848 53.527574 L 20.945493 53.527574 L 20.945493 79.080262 L 15.200969 79.080262 L 15.200969 28.878343 L 40.649211 28.878343 Z M 93.169828 79.080262 L 84.553042 58.890871 L 64.990326 58.890871 L 56.065425 79.080262 L 54.21151 79.080262 L 76.975492 27.922664 L 77.440277 27.922664 L 99.326914 79.080262 Z M 65.632668 57.600964 L 83.989034 57.600964 L 74.964909 36.53945 Z M 150.568069 28.878343 L 151.831864 28.878343 L 151.831864 60.488893 C 151.831864 73.790078 145.371886 80.443281 132.446706 80.443281 C 130.107118 80.443281 127.814531 80.161277 125.563722 79.602492 C 123.32858 79.043706 121.323219 78.05147 119.542416 76.620561 C 117.761614 75.179208 116.356817 73.152958 115.312358 70.54181 C 114.273121 67.930663 113.756114 64.57795 113.756114 60.488893 L 113.756114 28.878343 L 119.50586 28.878343 L 119.50586 60.488893 C 119.50586 61.658687 119.568528 63.016484 119.699085 64.562283 C 119.840087 66.092415 120.148202 67.659104 120.612987 69.257126 C 121.09866 70.855148 121.845448 72.348724 122.858573 73.737855 C 123.871699 75.11654 125.255607 76.244556 127.005075 77.127124 C 128.759766 77.999247 130.968797 78.432698 133.632167 78.432698 C 135.919532 78.432698 138.07634 78.166361 140.10259 77.633686 C 142.128841 77.101012 143.920088 76.160999 145.481554 74.808425 C 147.053465 73.461073 148.296371 71.575825 149.20505 69.157902 C 150.113729 66.729535 150.568069 63.596158 150.568069 59.768216 Z M 173.316384 77.712021 L 193.270772 77.712021 L 193.270772 79.080262 L 167.566638 79.080262 L 167.566638 28.878343 L 173.316384 28.878343 Z M 286.969183 27.922664 L 292.948711 79.080262 L 287.198964 79.001928 L 282.483232 38.858149 L 261.907391 77.712021 L 261.651499 77.712021 L 241.796334 39.479602 L 236.43826 79.080262 L 235.075241 79.080262 L 242.031338 27.922664 L 242.261119 27.922664 L 264.304424 70.463476 L 286.73418 27.922664 Z M 345.861 79.080262 L 337.249436 58.890871 L 317.681498 58.890871 L 308.756597 79.080262 L 306.907904 79.080262 L 329.666664 27.922664 L 330.136671 27.922664 L 352.018086 79.080262 Z M 318.329063 57.600964 L 336.685428 57.600964 L 327.661303 36.53945 Z M 402.131225 28.878343 L 402.131225 30.225695 L 386.657566 30.225695 L 386.657566 79.080262 L 380.986154 79.080262 L 380.986154 30.225695 L 365.496828 30.225695 L 365.496828 28.878343 Z M 454.489952 79.080262 L 445.878388 58.890871 L 426.31045 58.890871 L 417.385548 79.080262 L 415.536856 79.080262 L 438.295616 27.922664 L 438.765622 27.922664 L 460.647037 79.080262 Z M 426.952792 57.600964 L 445.31438 57.600964 L 436.290255 36.53945 Z M 426.952792 57.600964 " stroke="#03346e" stroke-width="2.594397" stroke-opacity="1" stroke-miterlimit="4"/><g fill="#03346e" fill-opacity="1"><g transform="translate(18.38432, 208.588402)"><g><path d="M 21.90625 -36.484375 L 7.171875 -36.484375 L 7.171875 -20.0625 L 20.296875 -20.0625 L 20.296875 -19.046875 L 7.171875 -19.046875 L 7.171875 0.0625 L 2.859375 0.0625 L 2.859375 -37.5 L 21.90625 -37.5 Z M 21.90625 -36.484375 "/></g></g></g><g fill="#03346e" fill-opacity="1"><g transform="translate(48.354534, 208.588402)"><g><path d="M 31.21875 0.0625 L 24.78125 -15.046875 L 10.15625 -15.046875 L 3.46875 0.0625 L 2.09375 0.0625 L 19.109375 -38.203125 L 19.46875 -38.203125 L 35.828125 0.0625 Z M 10.625 -16 L 24.359375 -16 L 17.609375 -31.765625 Z M 10.625 -16 "/></g></g></g><g fill="#03346e" fill-opacity="1"><g transform="translate(92.2944, 208.588402)"><g><path d="M 30.203125 -37.5 L 31.171875 -37.5 L 31.171875 -13.84375 C 31.171875 -3.894531 26.332031 1.078125 16.65625 1.078125 C 14.90625 1.078125 13.191406 0.867188 11.515625 0.453125 C 9.847656 0.0351562 8.347656 -0.707031 7.015625 -1.78125 C 5.679688 -2.863281 4.625 -4.378906 3.84375 -6.328125 C 3.070312 -8.273438 2.6875 -10.78125 2.6875 -13.84375 L 2.6875 -37.5 L 6.984375 -37.5 L 6.984375 -13.84375 C 6.984375 -12.96875 7.03125 -11.953125 7.125 -10.796875 C 7.226562 -9.648438 7.457031 -8.476562 7.8125 -7.28125 C 8.175781 -6.09375 8.734375 -4.976562 9.484375 -3.9375 C 10.242188 -2.90625 11.28125 -2.0625 12.59375 -1.40625 C 13.90625 -0.75 15.554688 -0.421875 17.546875 -0.421875 C 19.265625 -0.421875 20.878906 -0.617188 22.390625 -1.015625 C 23.898438 -1.410156 25.242188 -2.113281 26.421875 -3.125 C 27.597656 -4.144531 28.519531 -5.5625 29.1875 -7.375 C 29.863281 -9.1875 30.203125 -11.523438 30.203125 -14.390625 Z M 30.203125 -37.5 "/></g></g></g><g fill="#03346e" fill-opacity="1"><g transform="translate(132.353806, 208.588402)"><g><path d="M 7.171875 -0.953125 L 22.09375 -0.953125 L 22.09375 0.0625 L 2.859375 0.0625 L 2.859375 -37.5 L 7.171875 -37.5 Z M 7.171875 -0.953125 "/></g></g></g><g fill="#03346e" fill-opacity="1"><g transform="translate(162.682207, 208.588402)"><g/></g></g><g fill="#03346e" fill-opacity="1"><g transform="translate(183.578106, 208.588402)"><g><path d="M 40.953125 -38.203125 L 45.4375 0.0625 L 41.140625 0 L 37.609375 -30.03125 L 22.203125 -0.953125 L 22.03125 -0.953125 L 7.171875 -29.546875 L 3.171875 0.0625 L 2.15625 0.0625 L 7.34375 -38.203125 L 7.515625 -38.203125 L 24 -6.390625 L 40.78125 -38.203125 Z M 40.953125 -38.203125 "/></g></g></g><g fill="#03346e" fill-opacity="1"><g transform="translate(237.368377, 208.588402)"><g><path d="M 31.21875 0.0625 L 24.78125 -15.046875 L 10.15625 -15.046875 L 3.46875 0.0625 L 2.09375 0.0625 L 19.109375 -38.203125 L 19.46875 -38.203125 L 35.828125 0.0625 Z M 10.625 -16 L 24.359375 -16 L 17.609375 -31.765625 Z M 10.625 -16 "/></g></g></g><g fill="#03346e" fill-opacity="1"><g transform="translate(281.30824, 208.588402)"><g><path d="M 29.375 -37.5 L 29.375 -36.484375 L 17.796875 -36.484375 L 17.796875 0.0625 L 13.546875 0.0625 L 13.546875 -36.484375 L 1.96875 -36.484375 L 1.96875 -37.5 Z M 29.375 -37.5 "/></g></g></g><g fill="#03346e" fill-opacity="1"><g transform="translate(318.621473, 208.588402)"><g><path d="M 31.21875 0.0625 L 24.78125 -15.046875 L 10.15625 -15.046875 L 3.46875 0.0625 L 2.09375 0.0625 L 19.109375 -38.203125 L 19.46875 -38.203125 L 35.828125 0.0625 Z M 10.625 -16 L 24.359375 -16 L 17.609375 -31.765625 Z M 10.625 -16 "/></g></g></g></svg>