<svg xmlns="http://www.w3.org/2000/svg" xmlns:xlink="http://www.w3.org/1999/xlink" width="500" zoomAndPan="magnify" viewBox="0 0 375 374.999991" height="500" preserveAspectRatio="xMidYMid meet" version="1.0"><defs><clipPath id="5eb8208f52"><path d="M 75 86.390625 L 300 86.390625 L 300 288.890625 L 75 288.890625 Z M 75 86.390625 " clip-rule="nonzero"/></clipPath></defs><g clip-path="url(#5eb8208f52)"><path fill="#03346e" d="M 75.023438 210.359375 C 75.183594 209.980469 75.300781 209.589844 75.375 209.183594 C 75.753906 203.082031 77.3125 197.292969 79.691406 191.675781 C 81.917969 186.472656 84.808594 181.671875 88.363281 177.269531 C 91.742188 173.109375 95.546875 169.375 99.769531 166.078125 C 108.054688 159.488281 117.34375 154.835938 127.40625 151.75 C 133.300781 149.941406 139.34375 148.679688 145.539062 148.390625 C 145.703125 148.378906 145.867188 148.359375 146.03125 148.328125 C 148.386719 147.855469 148.179688 148.109375 148.417969 145.75 C 148.859375 141.523438 149.777344 137.40625 151.179688 133.398438 C 152.703125 128.964844 154.710938 124.761719 157.199219 120.785156 C 160.53125 115.40625 164.566406 110.617188 169.304688 106.421875 C 172.367188 103.699219 175.613281 101.21875 179.046875 98.976562 C 185.101562 95.097656 191.578125 92.125 198.46875 90.066406 C 202.796875 88.746094 207.210938 87.816406 211.699219 87.265625 C 215.84375 86.765625 219.984375 86.386719 224.152344 86.503906 C 230.367188 86.667969 236.5 87.464844 242.550781 88.890625 C 250.046875 90.640625 257.171875 93.367188 263.925781 97.066406 C 269.265625 99.996094 274.210938 103.484375 278.757812 107.535156 C 282.925781 111.246094 286.585938 115.40625 289.734375 120.015625 C 292.867188 124.546875 295.285156 129.433594 296.988281 134.671875 C 298.011719 137.878906 298.636719 141.152344 299.417969 144.402344 C 299.679688 145.429688 299.859375 146.46875 299.945312 147.523438 L 299.945312 156.75 C 299.910156 157.050781 299.84375 157.34375 299.75 157.628906 C 299.621094 158.019531 299.542969 158.417969 299.515625 158.828125 C 298.863281 164.875 297.296875 170.671875 294.820312 176.226562 C 292.71875 180.992188 290.066406 185.429688 286.859375 189.539062 C 285.960938 190.6875 285.109375 191.90625 284.058594 192.898438 C 282.882812 194 282.582031 195.367188 282.378906 196.8125 C 281.363281 204.1875 283.160156 210.839844 287.558594 216.804688 C 288.382812 217.921875 289.382812 218.90625 290.160156 220.050781 C 290.667969 220.769531 290.976562 221.5625 291.09375 222.4375 C 291.316406 224.824219 289.324219 226.992188 286.820312 226.996094 C 284.558594 227 282.308594 226.851562 280.066406 226.539062 C 275.789062 225.949219 271.667969 224.800781 267.699219 223.09375 C 262.773438 220.945312 258.304688 218.078125 254.296875 214.496094 C 253.917969 214.15625 253.519531 213.839844 253.109375 213.496094 C 244.605469 216.332031 235.832031 217.609375 226.882812 218.199219 C 226.664062 219.640625 226.40625 220.914062 226.28125 222.203125 C 225.859375 226.589844 224.621094 230.769531 223.066406 234.867188 C 220.871094 240.554688 217.917969 245.8125 214.207031 250.648438 C 209.300781 257.140625 203.332031 262.472656 196.53125 266.886719 C 188 272.421875 178.746094 276.238281 168.714844 278.046875 C 165.425781 278.640625 162.085938 279.105469 158.761719 279.371094 C 155.558594 279.671875 152.347656 279.769531 149.132812 279.664062 C 143.671875 279.4375 138.214844 278.980469 132.863281 277.765625 C 129.175781 276.929688 125.503906 276.039062 121.800781 275.164062 C 119.699219 276.785156 117.574219 278.585938 115.285156 280.152344 C 112.097656 282.367188 108.6875 284.148438 105.046875 285.5 C 101.410156 286.855469 97.660156 287.734375 93.800781 288.140625 C 92.058594 288.324219 90.3125 288.460938 88.566406 288.535156 C 86.632812 288.617188 85.167969 287.753906 84.292969 286.039062 C 83.433594 284.363281 83.742188 282.800781 84.917969 281.355469 C 86.09375 279.90625 87.230469 278.527344 88.277344 277.035156 C 90.839844 273.378906 92.1875 269.300781 92.714844 264.855469 C 93.042969 262.109375 92.714844 259.492188 92.277344 256.828125 C 92.160156 256.097656 91.847656 255.460938 91.335938 254.921875 C 87.832031 251.0625 84.84375 246.839844 82.367188 242.253906 C 79.160156 236.222656 76.820312 229.910156 75.871094 223.117188 C 75.640625 221.492188 75.308594 219.882812 75.027344 218.265625 Z M 97.859375 278.167969 L 98.171875 278.527344 C 100.339844 277.71875 102.554688 277.007812 104.671875 276.070312 C 108.785156 274.25 112.367188 271.660156 115.632812 268.542969 C 119.34375 264.988281 119.710938 264.929688 124.578125 266.574219 C 132.519531 269.253906 140.722656 270.390625 149.035156 270.90625 C 154.238281 271.230469 159.425781 270.808594 164.542969 269.972656 C 172.058594 268.742188 179.269531 266.460938 186.03125 262.875 C 196.9375 257.09375 205.789062 249.207031 211.824219 238.28125 C 215.710938 231.242188 217.710938 223.730469 218.171875 215.761719 C 218.367188 211.875 218.050781 208.027344 217.230469 204.222656 C 216.617188 201.300781 215.789062 198.441406 214.75 195.640625 C 212.511719 189.628906 209.109375 184.304688 204.886719 179.460938 C 200.019531 173.875 194.273438 169.429688 187.859375 165.828125 C 181.890625 162.519531 175.578125 160.128906 168.917969 158.652344 C 164.210938 157.59375 159.445312 156.988281 154.625 156.84375 C 151.929688 156.753906 149.226562 157.015625 146.527344 157.109375 C 141.914062 157.265625 137.398438 158.109375 132.949219 159.25 C 126.910156 160.769531 121.15625 163.019531 115.6875 165.996094 C 107.109375 170.695312 99.695312 176.722656 93.898438 184.660156 C 88.453125 192.117188 85.035156 200.3125 84.105469 209.574219 C 83.574219 214.816406 84.039062 219.917969 85.144531 224.996094 C 86.335938 230.449219 88.488281 235.542969 91.347656 240.335938 C 93.496094 243.933594 96.179688 247.113281 98.90625 250.269531 C 99.597656 251.03125 100.101562 251.898438 100.417969 252.875 C 101.855469 257.949219 102.097656 263.078125 101.152344 268.261719 C 100.542969 271.726562 99.445312 275.027344 97.859375 278.167969 Z M 277.132812 216.957031 C 276.972656 216.507812 276.890625 216.261719 276.800781 216.015625 C 276.105469 214.179688 275.296875 212.378906 274.734375 210.5 C 273.640625 206.847656 273.039062 203.070312 273.300781 199.273438 C 273.484375 196.597656 274.050781 193.941406 274.546875 191.292969 C 274.730469 190.578125 275.058594 189.9375 275.535156 189.375 C 276.328125 188.332031 277.234375 187.367188 278.101562 186.378906 C 281.417969 182.628906 284.125 178.480469 286.222656 173.9375 C 288.253906 169.554688 289.667969 164.980469 290.46875 160.214844 C 291.277344 155.425781 291.339844 150.628906 290.652344 145.820312 C 289.96875 141.105469 288.601562 136.59375 286.554688 132.292969 C 284.40625 127.691406 281.664062 123.476562 278.328125 119.652344 C 273.734375 114.363281 268.433594 109.914062 262.433594 106.296875 C 257.988281 103.601562 253.3125 101.394531 248.40625 99.679688 C 241.960938 97.484375 235.34375 96.109375 228.558594 95.558594 C 222.414062 95.046875 216.300781 95.296875 210.214844 96.308594 C 202.519531 97.539062 195.230469 99.984375 188.351562 103.652344 C 182.679688 106.628906 177.570312 110.371094 173.015625 114.878906 C 168.464844 119.398438 164.773438 124.535156 161.945312 130.292969 C 160.03125 134.191406 158.746094 138.25 157.730469 142.433594 C 157.304688 144.179688 157.257812 146.015625 157.019531 147.949219 C 157.902344 148.113281 158.59375 148.273438 159.304688 148.363281 C 161.832031 148.6875 164.378906 148.894531 166.894531 149.3125 C 174.128906 150.5 181.050781 152.6875 187.660156 155.871094 C 188.988281 156.511719 190.390625 156.820312 191.863281 156.800781 C 214.121094 156.769531 236.378906 156.769531 258.636719 156.800781 C 259.585938 156.808594 260.523438 156.890625 261.457031 157.046875 C 263.210938 157.3125 264.75 159.128906 264.75 161.171875 C 264.75 163.316406 263.121094 165.066406 261.472656 165.308594 C 260.539062 165.464844 259.601562 165.554688 258.65625 165.574219 C 241.011719 165.585938 223.367188 165.585938 205.71875 165.574219 C 204.972656 165.574219 204.226562 165.574219 203.09375 165.597656 C 203.824219 166.226562 204.226562 166.539062 204.582031 166.894531 C 207.117188 169.398438 209.769531 171.832031 212.140625 174.515625 C 216.386719 179.289062 219.660156 184.757812 222.179688 190.636719 C 224.132812 195.199219 225.628906 199.921875 226.199219 204.878906 C 226.328125 206.039062 226.480469 207.195312 226.652344 208.351562 C 226.785156 209.242188 227.09375 209.460938 227.996094 209.359375 C 228.789062 209.269531 229.585938 209.171875 230.382812 209.058594 C 234.128906 208.527344 237.914062 208.167969 241.613281 207.394531 C 245.238281 206.636719 248.777344 205.480469 252.34375 204.449219 C 254.398438 203.855469 256.160156 204.078125 257.796875 205.628906 C 259.699219 207.445312 261.695312 209.15625 263.78125 210.761719 C 267.691406 213.75 272.136719 215.671875 277.132812 216.957031 Z M 277.132812 216.957031 " fill-opacity="1" fill-rule="nonzero"/></g><path fill="#03346e" d="M 232.582031 139.191406 C 223.878906 139.191406 215.175781 139.191406 206.46875 139.175781 C 205.519531 139.1875 204.585938 139.066406 203.667969 138.8125 C 203.226562 138.6875 202.820312 138.492188 202.441406 138.230469 C 202.066406 137.96875 201.742188 137.652344 201.472656 137.28125 C 201.203125 136.910156 201 136.507812 200.867188 136.070312 C 200.730469 135.628906 200.671875 135.183594 200.6875 134.722656 C 200.695312 134.285156 200.769531 133.855469 200.910156 133.4375 C 201.050781 133.023438 201.253906 132.636719 201.515625 132.285156 C 201.78125 131.933594 202.089844 131.628906 202.449219 131.375 C 202.808594 131.121094 203.199219 130.929688 203.621094 130.800781 C 204.386719 130.558594 205.171875 130.4375 205.976562 130.429688 C 223.824219 130.410156 241.671875 130.402344 259.519531 130.414062 C 261.03125 130.414062 262.417969 130.695312 263.515625 131.839844 C 265.71875 134.132812 264.925781 137.746094 261.925781 138.796875 C 261.015625 139.078125 260.089844 139.210938 259.136719 139.183594 C 250.277344 139.203125 241.425781 139.191406 232.582031 139.191406 Z M 232.582031 139.191406 " fill-opacity="1" fill-rule="nonzero"/><path fill="#03346e" d="M 191.855469 134.863281 C 191.589844 137.65625 189.921875 139.109375 187.472656 139.109375 C 185.023438 139.109375 183.195312 137.640625 183.164062 134.835938 C 183.128906 131.988281 185.113281 130.402344 187.609375 130.488281 C 190.160156 130.578125 191.6875 132.15625 191.855469 134.863281 Z M 191.855469 134.863281 " fill-opacity="1" fill-rule="nonzero"/><path fill="#03346e" d="M 131.09375 216.953125 C 131.09375 217.40625 131.050781 217.855469 130.960938 218.300781 C 130.875 218.746094 130.742188 219.175781 130.570312 219.597656 C 130.394531 220.015625 130.183594 220.414062 129.929688 220.789062 C 129.679688 221.167969 129.394531 221.515625 129.070312 221.835938 C 128.75 222.15625 128.402344 222.441406 128.027344 222.695312 C 127.648438 222.945312 127.25 223.160156 126.832031 223.332031 C 126.414062 223.507812 125.980469 223.636719 125.535156 223.726562 C 125.09375 223.8125 124.644531 223.859375 124.191406 223.859375 C 123.734375 223.859375 123.289062 223.8125 122.84375 223.726562 C 122.398438 223.636719 121.964844 223.507812 121.546875 223.332031 C 121.128906 223.160156 120.730469 222.945312 120.351562 222.695312 C 119.976562 222.441406 119.628906 222.15625 119.308594 221.835938 C 118.988281 221.515625 118.699219 221.167969 118.449219 220.789062 C 118.195312 220.414062 117.984375 220.015625 117.808594 219.597656 C 117.636719 219.175781 117.503906 218.746094 117.417969 218.300781 C 117.328125 217.855469 117.285156 217.40625 117.285156 216.953125 C 117.285156 216.5 117.328125 216.050781 117.417969 215.605469 C 117.503906 215.160156 117.636719 214.730469 117.808594 214.3125 C 117.984375 213.890625 118.195312 213.492188 118.449219 213.117188 C 118.699219 212.738281 118.988281 212.390625 119.308594 212.070312 C 119.628906 211.75 119.976562 211.464844 120.351562 211.210938 C 120.730469 210.960938 121.128906 210.746094 121.546875 210.574219 C 121.964844 210.402344 122.398438 210.269531 122.84375 210.179688 C 123.289062 210.09375 123.734375 210.046875 124.191406 210.046875 C 124.644531 210.046875 125.09375 210.09375 125.535156 210.179688 C 125.980469 210.269531 126.414062 210.402344 126.832031 210.574219 C 127.25 210.746094 127.648438 210.960938 128.027344 211.210938 C 128.402344 211.464844 128.75 211.75 129.070312 212.070312 C 129.394531 212.390625 129.679688 212.738281 129.929688 213.117188 C 130.183594 213.492188 130.394531 213.890625 130.570312 214.3125 C 130.742188 214.730469 130.875 215.160156 130.960938 215.605469 C 131.050781 216.050781 131.09375 216.5 131.09375 216.953125 Z M 131.09375 216.953125 " fill-opacity="1" fill-rule="nonzero"/><path fill="#03346e" d="M 159.835938 216.953125 C 159.835938 217.40625 159.792969 217.855469 159.703125 218.300781 C 159.617188 218.746094 159.484375 219.175781 159.3125 219.597656 C 159.136719 220.015625 158.925781 220.414062 158.671875 220.789062 C 158.421875 221.167969 158.136719 221.515625 157.816406 221.835938 C 157.492188 222.15625 157.144531 222.441406 156.769531 222.695312 C 156.390625 222.945312 155.992188 223.160156 155.574219 223.332031 C 155.15625 223.507812 154.722656 223.636719 154.277344 223.726562 C 153.835938 223.8125 153.386719 223.859375 152.933594 223.859375 C 152.480469 223.859375 152.03125 223.8125 151.585938 223.726562 C 151.140625 223.636719 150.707031 223.507812 150.289062 223.332031 C 149.871094 223.160156 149.472656 222.945312 149.097656 222.695312 C 148.71875 222.441406 148.371094 222.15625 148.050781 221.835938 C 147.730469 221.515625 147.441406 221.167969 147.191406 220.789062 C 146.9375 220.414062 146.726562 220.015625 146.550781 219.597656 C 146.378906 219.175781 146.25 218.746094 146.160156 218.300781 C 146.070312 217.855469 146.027344 217.40625 146.027344 216.953125 C 146.027344 216.5 146.070312 216.050781 146.160156 215.605469 C 146.25 215.160156 146.378906 214.730469 146.550781 214.3125 C 146.726562 213.890625 146.9375 213.492188 147.191406 213.117188 C 147.441406 212.738281 147.730469 212.390625 148.050781 212.070312 C 148.371094 211.75 148.71875 211.464844 149.097656 211.210938 C 149.472656 210.960938 149.871094 210.746094 150.289062 210.574219 C 150.707031 210.402344 151.140625 210.269531 151.585938 210.179688 C 152.03125 210.09375 152.480469 210.046875 152.933594 210.046875 C 153.386719 210.046875 153.835938 210.09375 154.277344 210.179688 C 154.722656 210.269531 155.15625 210.402344 155.574219 210.574219 C 155.992188 210.746094 156.390625 210.960938 156.769531 211.210938 C 157.144531 211.464844 157.492188 211.75 157.816406 212.070312 C 158.136719 212.390625 158.421875 212.738281 158.671875 213.117188 C 158.925781 213.492188 159.136719 213.890625 159.3125 214.3125 C 159.484375 214.730469 159.617188 215.160156 159.703125 215.605469 C 159.792969 216.050781 159.835938 216.5 159.835938 216.953125 Z M 159.835938 216.953125 " fill-opacity="1" fill-rule="nonzero"/><path fill="#03346e" d="M 187.496094 216.953125 C 187.496094 217.40625 187.453125 217.855469 187.363281 218.300781 C 187.277344 218.746094 187.144531 219.175781 186.972656 219.597656 C 186.796875 220.015625 186.585938 220.414062 186.332031 220.789062 C 186.082031 221.167969 185.796875 221.515625 185.476562 221.835938 C 185.152344 222.15625 184.804688 222.441406 184.429688 222.695312 C 184.050781 222.945312 183.652344 223.160156 183.234375 223.332031 C 182.816406 223.507812 182.382812 223.636719 181.9375 223.726562 C 181.496094 223.8125 181.046875 223.859375 180.59375 223.859375 C 180.140625 223.859375 179.691406 223.8125 179.246094 223.726562 C 178.800781 223.636719 178.367188 223.507812 177.949219 223.332031 C 177.53125 223.160156 177.132812 222.945312 176.757812 222.695312 C 176.378906 222.441406 176.03125 222.15625 175.710938 221.835938 C 175.390625 221.515625 175.101562 221.167969 174.851562 220.789062 C 174.597656 220.414062 174.386719 220.015625 174.210938 219.597656 C 174.039062 219.175781 173.910156 218.746094 173.820312 218.300781 C 173.730469 217.855469 173.6875 217.40625 173.6875 216.953125 C 173.6875 216.5 173.730469 216.050781 173.820312 215.605469 C 173.910156 215.160156 174.039062 214.730469 174.210938 214.3125 C 174.386719 213.890625 174.597656 213.492188 174.851562 213.117188 C 175.101562 212.738281 175.390625 212.390625 175.710938 212.070312 C 176.03125 211.75 176.378906 211.464844 176.757812 211.210938 C 177.132812 210.960938 177.53125 210.746094 177.949219 210.574219 C 178.367188 210.402344 178.800781 210.269531 179.246094 210.179688 C 179.691406 210.09375 180.140625 210.046875 180.59375 210.046875 C 181.046875 210.046875 181.496094 210.09375 181.9375 210.179688 C 182.382812 210.269531 182.816406 210.402344 183.234375 210.574219 C 183.652344 210.746094 184.050781 210.960938 184.429688 211.210938 C 184.804688 211.464844 185.152344 211.75 185.476562 212.070312 C 185.796875 212.390625 186.082031 212.738281 186.332031 213.117188 C 186.585938 213.492188 186.796875 213.890625 186.972656 214.3125 C 187.144531 214.730469 187.277344 215.160156 187.363281 215.605469 C 187.453125 216.050781 187.496094 216.5 187.496094 216.953125 Z M 187.496094 216.953125 " fill-opacity="1" fill-rule="nonzero"/></svg>