<svg xmlns="http://www.w3.org/2000/svg" xmlns:xlink="http://www.w3.org/1999/xlink" width="500" zoomAndPan="magnify" viewBox="0 0 375 374.999991" height="500" preserveAspectRatio="xMidYMid meet" version="1.0"><defs><clipPath id="3a5a2667cb"><path d="M 71 48 L 227 48 L 227 204 L 71 204 Z M 71 48 " clip-rule="nonzero"/></clipPath><clipPath id="c41a8c15c2"><path d="M 71.695312 178.292969 L 201.871094 48.117188 L 226.613281 72.855469 L 96.433594 203.03125 Z M 71.695312 178.292969 " clip-rule="nonzero"/></clipPath><clipPath id="f202d09d3a"><path d="M 81 104 L 237 104 L 237 260 L 81 260 Z M 81 104 " clip-rule="nonzero"/></clipPath><clipPath id="2be64ddf8a"><path d="M 81.347656 235.015625 L 211.523438 104.839844 L 236.265625 129.578125 L 106.085938 259.753906 Z M 81.347656 235.015625 " clip-rule="nonzero"/></clipPath><clipPath id="def50c8412"><path d="M 137 114 L 293 114 L 293 270 L 137 270 Z M 137 114 " clip-rule="nonzero"/></clipPath><clipPath id="b2befe9922"><path d="M 137.917969 244.519531 L 268.097656 114.339844 L 292.835938 139.082031 L 162.660156 269.257812 Z M 137.917969 244.519531 " clip-rule="nonzero"/></clipPath><clipPath id="0cd387166a"><path d="M 147 171 L 303 171 L 303 326 L 147 326 Z M 147 171 " clip-rule="nonzero"/></clipPath><clipPath id="7dcfc66ec0"><path d="M 147.574219 301.242188 L 277.75 171.0625 L 302.488281 195.804688 L 172.3125 325.980469 Z M 147.574219 301.242188 " clip-rule="nonzero"/></clipPath><clipPath id="0153533d9f"><path d="M 245 256 L 274 256 L 274 285 L 245 285 Z M 245 256 " clip-rule="nonzero"/></clipPath><clipPath id="bc2679d953"><path d="M 245.6875 269.191406 L 258.351562 256.527344 L 273.226562 271.402344 L 260.5625 284.066406 Z M 245.6875 269.191406 " clip-rule="nonzero"/></clipPath><clipPath id="f09aff29ba"><path d="M 90 102 L 118 102 L 118 129 L 90 129 Z M 90 102 " clip-rule="nonzero"/></clipPath><clipPath id="a7b3f1bdfc"><path d="M 90.953125 114.453125 L 103.117188 102.289062 L 117.113281 116.28125 L 104.945312 128.449219 Z M 90.953125 114.453125 " clip-rule="nonzero"/></clipPath><clipPath id="c478953bd1"><path d="M 118 260 L 147 260 L 147 289 L 118 289 Z M 118 260 " clip-rule="nonzero"/></clipPath><clipPath id="499517c0ce"><path d="M 118.960938 273.140625 L 131.625 260.476562 L 146.5 275.351562 L 133.835938 288.015625 Z M 118.960938 273.140625 " clip-rule="nonzero"/></clipPath><clipPath id="486436e986"><path d="M 293 152 L 322 152 L 322 181 L 293 181 Z M 293 152 " clip-rule="nonzero"/></clipPath><clipPath id="4f3db0a542"><path d="M 293.542969 165.128906 L 306.207031 152.464844 L 321.082031 167.339844 L 308.417969 180.003906 Z M 293.542969 165.128906 " clip-rule="nonzero"/></clipPath><clipPath id="3ef9c6a472"><path d="M 53 195 L 80 195 L 80 222 L 53 222 Z M 53 195 " clip-rule="nonzero"/></clipPath><clipPath id="5d1d539313"><path d="M 53.527344 207.207031 L 65.695312 195.039062 L 79.6875 209.035156 L 67.523438 221.199219 Z M 53.527344 207.207031 " clip-rule="nonzero"/></clipPath><clipPath id="9c4a62ef8c"><path d="M 227 85 L 255 85 L 255 114 L 227 114 Z M 227 85 " clip-rule="nonzero"/></clipPath><clipPath id="8d883e3468"><path d="M 227.320312 98.40625 L 239.984375 85.742188 L 254.859375 100.617188 L 242.195312 113.28125 Z M 227.320312 98.40625 " clip-rule="nonzero"/></clipPath></defs><rect x="-37.5" width="450" fill="transparent" y="-37.499999" height="449.999989" fill-opacity="1"/><rect x="-37.5" width="450" fill="transparent" y="-37.499999" height="449.999989" fill-opacity="1"/><g clip-path="url(#3a5a2667cb)"><g clip-path="url(#c41a8c15c2)"><path fill="#000000" d="M 71.695312 178.292969 L 201.867188 48.121094 L 226.609375 72.859375 L 96.433594 203.03125 Z M 71.695312 178.292969 " fill-opacity="1" fill-rule="nonzero"/></g></g><g clip-path="url(#f202d09d3a)"><g clip-path="url(#2be64ddf8a)"><path fill="#000000" d="M 81.347656 235.015625 L 211.519531 104.84375 L 236.261719 129.582031 L 106.085938 259.753906 Z M 81.347656 235.015625 " fill-opacity="1" fill-rule="nonzero"/></g></g><g clip-path="url(#def50c8412)"><g clip-path="url(#b2befe9922)"><path fill="#000000" d="M 137.917969 244.519531 L 268.09375 114.34375 L 292.832031 139.082031 L 162.660156 269.257812 Z M 137.917969 244.519531 " fill-opacity="1" fill-rule="nonzero"/></g></g><g clip-path="url(#0cd387166a)"><g clip-path="url(#7dcfc66ec0)"><path fill="#000000" d="M 147.574219 301.242188 L 277.746094 171.066406 L 302.484375 195.804688 L 172.3125 325.980469 Z M 147.574219 301.242188 " fill-opacity="1" fill-rule="nonzero"/></g></g><g clip-path="url(#0153533d9f)"><g clip-path="url(#bc2679d953)"><path fill="#000000" d="M 245.6875 269.191406 L 258.351562 256.527344 L 273.242188 271.417969 L 260.578125 284.082031 Z M 245.6875 269.191406 " fill-opacity="1" fill-rule="nonzero"/></g></g><g clip-path="url(#f09aff29ba)"><g clip-path="url(#a7b3f1bdfc)"><path fill="#000000" d="M 90.953125 114.453125 L 103.117188 102.289062 L 117.089844 116.257812 L 104.925781 128.425781 Z M 90.953125 114.453125 " fill-opacity="1" fill-rule="nonzero"/></g></g><g clip-path="url(#c478953bd1)"><g clip-path="url(#499517c0ce)"><path fill="#000000" d="M 118.960938 273.140625 L 131.625 260.476562 L 146.515625 275.367188 L 133.851562 288.03125 Z M 118.960938 273.140625 " fill-opacity="1" fill-rule="nonzero"/></g></g><g clip-path="url(#486436e986)"><g clip-path="url(#4f3db0a542)"><path fill="#000000" d="M 293.542969 165.128906 L 306.207031 152.464844 L 321.097656 167.355469 L 308.433594 180.019531 Z M 293.542969 165.128906 " fill-opacity="1" fill-rule="nonzero"/></g></g><g clip-path="url(#3ef9c6a472)"><g clip-path="url(#5d1d539313)"><path fill="#000000" d="M 53.527344 207.207031 L 65.695312 195.039062 L 79.664062 209.011719 L 67.5 221.175781 Z M 53.527344 207.207031 " fill-opacity="1" fill-rule="nonzero"/></g></g><g clip-path="url(#9c4a62ef8c)"><g clip-path="url(#8d883e3468)"><path fill="#000000" d="M 227.320312 98.40625 L 239.984375 85.742188 L 254.875 100.632812 L 242.210938 113.296875 Z M 227.320312 98.40625 " fill-opacity="1" fill-rule="nonzero"/></g></g></svg>