<svg width="30" height="27" viewBox="0 0 30 27" fill="none" xmlns="http://www.w3.org/2000/svg">
<path d="M28.3332 6.37248H20.3332M6.99984 6.37248H1.6665M28.3332 21.0391H22.9998M9.6665 21.0391H1.6665M12.3332 11.0391C12.946 11.0391 13.5528 10.9184 14.119 10.6839C14.6852 10.4494 15.1997 10.1056 15.633 9.67231C16.0663 9.23897 16.4101 8.72452 16.6446 8.15833C16.8791 7.59215 16.9998 6.98531 16.9998 6.37248C16.9998 5.75964 16.8791 5.15281 16.6446 4.58662C16.4101 4.02043 16.0663 3.50599 15.633 3.07265C15.1997 2.63931 14.6852 2.29556 14.119 2.06104C13.5528 1.82652 12.946 1.70581 12.3332 1.70581C11.0955 1.70581 9.90851 2.19748 9.03334 3.07265C8.15817 3.94782 7.6665 5.1348 7.6665 6.37248C7.6665 7.61015 8.15817 8.79714 9.03334 9.67231C9.90851 10.5475 11.0955 11.0391 12.3332 11.0391V11.0391ZM17.6665 25.7058C18.9042 25.7058 20.0912 25.2141 20.9663 24.339C21.8415 23.4638 22.3332 22.2768 22.3332 21.0391C22.3332 19.8015 21.8415 18.6145 20.9663 17.7393C20.0912 16.8641 18.9042 16.3725 17.6665 16.3725C16.4288 16.3725 15.2418 16.8641 14.3667 17.7393C13.4915 18.6145 12.9998 19.8015 12.9998 21.0391C12.9998 22.2768 13.4915 23.4638 14.3667 24.339C15.2418 25.2141 16.4288 25.7058 17.6665 25.7058V25.7058Z" stroke="white" stroke-width="2.5" stroke-miterlimit="10" stroke-linecap="round" stroke-linejoin="round"/>
</svg>
