<svg xmlns="http://www.w3.org/2000/svg" xmlns:xlink="http://www.w3.org/1999/xlink" width="500" zoomAndPan="magnify" viewBox="0 0 375 374.999991" height="500" preserveAspectRatio="xMidYMid meet" version="1.0"><path fill="#03346e" d="M 187.734375 75.464844 C 163.632812 75.464844 143.726562 93.902344 141.375 117.390625 C 136.507812 117.367188 132.578125 117.039062 128.621094 119.210938 C 126.578125 120.332031 124.855469 122.378906 124 124.632812 C 123.144531 126.890625 122.898438 129.304688 122.898438 132.148438 C 122.898438 132.886719 123.066406 133.582031 123.398438 134.242188 C 125.609375 138.636719 126.398438 143.074219 126.210938 145.789062 C 126.132812 146.886719 125.90625 147.378906 125.761719 147.707031 C 119.8125 145.792969 113.683594 146.28125 108.921875 147.953125 C 106.164062 148.921875 103.839844 150.097656 101.988281 151.511719 C 101.066406 152.214844 100.234375 152.921875 99.46875 154.183594 C 99.085938 154.816406 98.683594 155.632812 98.585938 156.804688 C 98.570312 157.019531 98.78125 157.261719 98.796875 157.496094 C 98.761719 157.578125 98.792969 157.511719 98.695312 157.695312 C 98.3125 158.445312 97.472656 159.792969 96.386719 161.382812 C 94.210938 164.558594 91.027344 168.804688 87.859375 173.136719 C 84.691406 177.472656 81.535156 181.878906 79.253906 185.730469 C 78.113281 187.652344 77.183594 189.40625 76.558594 191.214844 C 75.933594 193.027344 75 195.484375 77.152344 198.332031 C 77.65625 199.007812 78.300781 199.507812 79.078125 199.832031 C 88.023438 203.535156 92.703125 207.464844 95.328125 211.132812 C 97.957031 214.800781 98.742188 218.398438 99.125 222.359375 C 99.507812 226.320312 99.242188 230.53125 100.605469 234.988281 C 101.9375 239.332031 105.660156 243.511719 111.515625 245.460938 C 112.195312 245.746094 112.921875 246.492188 113.597656 248.335938 C 114.277344 250.179688 114.679688 252.839844 114.800781 255.488281 C 115.039062 260.78125 114.253906 265.824219 114.253906 265.824219 C 114.140625 266.53125 114.191406 267.230469 114.402344 267.917969 C 114.613281 268.605469 114.964844 269.210938 115.457031 269.734375 C 115.457031 269.734375 119.820312 274.398438 124.589844 278.859375 C 126.972656 281.09375 129.433594 283.277344 131.722656 284.929688 C 132.867188 285.753906 133.929688 286.460938 135.234375 287.011719 C 135.886719 287.289062 136.609375 287.542969 137.636719 287.621094 C 138.664062 287.703125 140.222656 287.515625 141.53125 286.484375 C 140.097656 287.613281 140.367188 286.96875 141.320312 287.003906 C 142.277344 287.039062 143.847656 287.238281 145.6875 287.585938 C 149.371094 288.28125 154.195312 289.507812 158.992188 290.761719 C 163.785156 292.011719 168.546875 293.285156 172.402344 294.089844 C 174.332031 294.496094 176 294.796875 177.589844 294.890625 C 178.382812 294.9375 179.148438 294.957031 180.144531 294.765625 C 181.140625 294.574219 182.871094 294.140625 184.019531 292.097656 C 184.019531 292.097656 184.019531 292.09375 184.019531 292.089844 C 185.09375 290.179688 186.777344 286.542969 189.207031 282.601562 C 191.472656 278.921875 194.351562 275.703125 196.230469 274.4375 C 196.40625 274.480469 196.4375 274.464844 196.660156 274.53125 C 197.957031 274.902344 199.945312 275.660156 202.253906 276.667969 C 206.875 278.679688 212.875 281.695312 218.886719 284.839844 C 224.898438 287.980469 230.9375 291.25 235.808594 293.820312 C 238.246094 295.101562 240.382812 296.207031 242.125 297.058594 C 243.863281 297.90625 244.757812 298.472656 246.582031 298.886719 C 250.453125 299.761719 252.996094 298.183594 255.679688 296.65625 C 258.363281 295.132812 261.066406 293.125 263.632812 291.070312 C 266.195312 289.015625 268.59375 286.910156 270.464844 285.230469 C 272.335938 283.546875 274.066406 282.007812 273.867188 282.164062 C 275.027344 281.257812 275.636719 279.789062 275.761719 278.816406 C 275.882812 277.839844 275.75 277.207031 275.625 276.695312 C 275.371094 275.675781 275.046875 275.0625 274.703125 274.402344 C 274.015625 273.085938 273.167969 271.777344 272.285156 270.390625 C 270.683594 267.878906 269.210938 265.066406 268.855469 264.203125 C 268.855469 264.203125 268.855469 264.195312 268.855469 264.195312 C 268.902344 263.855469 268.988281 263.144531 269.28125 262.375 C 269.867188 260.832031 270.871094 258.667969 272.128906 256.207031 C 274.648438 251.277344 278.195312 245.082031 281.730469 238.972656 C 285.261719 232.863281 288.78125 226.847656 291.335938 222.058594 C 292.613281 219.664062 293.652344 217.609375 294.375 215.816406 C 294.738281 214.921875 295.027344 214.121094 295.222656 213.132812 C 295.417969 212.148438 296.101562 210.558594 294.140625 208.238281 C 293.691406 207.714844 293.15625 207.308594 292.527344 207.019531 C 285.96875 204.003906 282.011719 196.046875 280 188.003906 C 278.996094 183.984375 278.476562 180.066406 278.234375 177.105469 C 278.132812 175.851562 278.097656 174.890625 278.070312 174.046875 C 278.167969 173.996094 278.175781 173.988281 278.28125 173.9375 C 279.710938 173.238281 281.839844 172.351562 284.003906 171.464844 C 286.167969 170.574219 288.371094 169.691406 290.191406 168.871094 C 291.097656 168.460938 291.898438 168.074219 292.675781 167.625 C 293.0625 167.398438 293.441406 167.164062 293.910156 166.777344 C 294.378906 166.390625 295.148438 166.003906 295.683594 164.167969 L 295.683594 164.15625 C 298.394531 154.871094 299.898438 148.019531 299.46875 142.15625 C 299.054688 136.507812 295.675781 131.707031 290.808594 129.429688 C 288.019531 127.441406 284.863281 127.023438 281.757812 127.109375 C 278.382812 127.203125 274.832031 127.84375 271.285156 128.628906 C 265.195312 129.976562 259.796875 131.417969 256.179688 132.058594 L 247.726562 119.457031 C 247.296875 118.8125 246.738281 118.304688 246.050781 117.941406 C 245.367188 117.574219 244.636719 117.390625 243.859375 117.390625 L 234.082031 117.390625 C 231.730469 93.902344 211.839844 75.464844 187.734375 75.464844 Z M 187.734375 84.78125 C 208.375 84.78125 225 101.417969 225 122.050781 C 225 134.027344 215.097656 153.84375 204.785156 169.816406 C 196.273438 182.996094 190.480469 189.921875 187.761719 193.300781 C 185.050781 189.882812 179.21875 182.789062 170.691406 169.488281 C 160.371094 153.394531 150.464844 133.496094 150.464844 122.050781 C 150.464844 101.421875 167.09375 84.78125 187.734375 84.78125 Z M 187.734375 103.417969 C 177.496094 103.417969 169.097656 111.8125 169.097656 122.050781 C 169.097656 132.285156 177.496094 140.683594 187.734375 140.683594 C 197.96875 140.683594 206.367188 132.285156 206.367188 122.050781 C 206.367188 111.8125 197.96875 103.417969 187.734375 103.417969 Z M 187.734375 112.734375 C 192.933594 112.734375 197.050781 116.847656 197.050781 122.050781 C 197.050781 127.25 192.933594 131.367188 187.734375 131.367188 C 182.53125 131.367188 178.417969 127.25 178.417969 122.050781 C 178.417969 116.847656 182.53125 112.734375 187.734375 112.734375 Z M 234.015625 126.707031 L 241.378906 126.707031 L 250.195312 139.855469 C 250.664062 140.558594 251.28125 141.09375 252.042969 141.457031 C 252.804688 141.824219 253.609375 141.972656 254.453125 141.902344 C 259.875 141.453125 266.746094 139.179688 273.304688 137.726562 C 276.582031 137 279.703125 136.488281 282.019531 136.425781 C 284.335938 136.359375 285.558594 136.914062 285.539062 136.898438 C 285.910156 137.210938 286.320312 137.460938 286.769531 137.644531 C 289.464844 138.765625 289.921875 139.320312 290.179688 142.839844 C 290.417969 146.078125 289.1875 152.238281 287.015625 160.054688 C 286.769531 160.171875 286.667969 160.234375 286.359375 160.371094 C 284.835938 161.058594 282.664062 161.9375 280.464844 162.835938 C 278.265625 163.738281 276.046875 164.65625 274.1875 165.566406 C 273.257812 166.023438 272.433594 166.453125 271.601562 167.023438 C 271.1875 167.308594 270.761719 167.617188 270.265625 168.140625 C 269.769531 168.667969 269.003906 169.445312 268.789062 171.179688 C 268.648438 172.300781 268.714844 172.597656 268.734375 173.675781 C 268.757812 174.761719 268.816406 176.1875 268.953125 177.867188 C 269.230469 181.226562 269.796875 185.605469 270.964844 190.269531 C 273.015625 198.472656 277.171875 207.722656 285.296875 213.214844 C 284.773438 214.394531 284.125 215.796875 283.121094 217.675781 C 280.714844 222.183594 277.214844 228.183594 273.667969 234.316406 C 270.121094 240.445312 266.519531 246.707031 263.832031 251.964844 C 262.488281 254.597656 261.371094 256.964844 260.574219 259.0625 C 259.777344 261.164062 258.871094 262.59375 259.519531 265.667969 C 259.519531 265.671875 259.519531 265.675781 259.519531 265.675781 C 260.367188 269.675781 262.652344 272.625 264.421875 275.402344 C 264.898438 276.148438 265.140625 276.578125 265.507812 277.175781 C 265.066406 277.585938 264.828125 277.769531 264.242188 278.296875 C 262.433594 279.921875 260.15625 281.917969 257.808594 283.800781 C 255.460938 285.683594 253.015625 287.449219 251.074219 288.550781 C 249.644531 289.363281 248.433594 289.527344 248.320312 289.652344 C 248.421875 289.636719 247.574219 289.355469 246.207031 288.6875 C 244.636719 287.917969 242.546875 286.839844 240.148438 285.574219 C 235.351562 283.042969 229.289062 279.761719 223.199219 276.578125 C 217.109375 273.394531 211.007812 270.316406 205.976562 268.125 C 203.460938 267.027344 201.226562 266.152344 199.222656 265.578125 C 198.222656 265.289062 197.292969 265.070312 196.257812 264.976562 C 195.222656 264.882812 194.011719 264.75 192.308594 265.667969 C 187.296875 268.375 184.03125 273.234375 181.273438 277.714844 C 179.109375 281.226562 177.957031 283.65625 177.058594 285.410156 C 176.292969 285.3125 175.539062 285.230469 174.3125 284.976562 C 170.890625 284.257812 166.171875 283.011719 161.347656 281.753906 C 156.523438 280.496094 151.59375 279.21875 147.417969 278.433594 C 145.328125 278.039062 143.4375 277.753906 141.675781 277.6875 C 140.824219 277.65625 139.734375 278.289062 138.820312 278.40625 C 138.664062 278.335938 138 277.96875 137.183594 277.378906 C 135.515625 276.171875 133.195312 274.15625 130.957031 272.0625 C 127.171875 268.519531 124.617188 265.78125 123.597656 264.703125 C 123.832031 262.964844 124.335938 260.160156 124.109375 255.070312 C 123.960938 251.84375 123.542969 248.394531 122.34375 245.125 C 121.140625 241.855469 118.9375 238.484375 115.136719 236.878906 C 114.992188 236.820312 114.84375 236.765625 114.691406 236.71875 C 110.695312 235.488281 110.195312 234.484375 109.515625 232.257812 C 108.832031 230.03125 108.847656 226.175781 108.394531 221.46875 C 107.941406 216.761719 106.769531 211.09375 102.910156 205.699219 C 99.5625 201.027344 93.847656 196.8125 85.976562 193.035156 C 86.324219 192.273438 86.609375 191.585938 87.269531 190.480469 C 89.207031 187.207031 92.261719 182.902344 95.382812 178.632812 C 98.507812 174.363281 101.695312 170.121094 104.074219 166.648438 C 105.261719 164.914062 106.242188 163.398438 106.984375 161.957031 C 107.355469 161.234375 107.675781 160.558594 107.921875 159.597656 C 107.960938 159.449219 107.734375 159.03125 107.777344 158.84375 C 108.539062 158.28125 110.101562 157.410156 112.007812 156.742188 C 115.945312 155.359375 121.015625 154.941406 124.433594 156.640625 C 125.089844 156.964844 125.78125 157.125 126.507812 157.125 C 129.335938 157.125 132.042969 155.371094 133.425781 153.285156 C 134.804688 151.199219 135.339844 148.882812 135.507812 146.425781 C 135.804688 142.140625 134.363281 137.136719 132.214844 132.148438 C 132.214844 129.925781 132.484375 128.535156 132.707031 127.945312 C 132.929688 127.355469 132.859375 127.515625 133.105469 127.382812 C 133.582031 127.121094 136.613281 126.738281 141.46875 126.71875 C 143.265625 141.90625 153.210938 159.480469 162.847656 174.511719 C 173.492188 191.109375 184.121094 204.179688 184.121094 204.179688 C 184.339844 204.449219 184.582031 204.6875 184.851562 204.898438 C 185.125 205.113281 185.414062 205.292969 185.726562 205.441406 C 186.035156 205.589844 186.359375 205.699219 186.695312 205.777344 C 187.027344 205.855469 187.367188 205.894531 187.710938 205.894531 C 188.058594 205.894531 188.398438 205.859375 188.734375 205.785156 C 189.070312 205.710938 189.394531 205.601562 189.703125 205.457031 C 190.015625 205.308594 190.308594 205.132812 190.582031 204.921875 C 190.851562 204.710938 191.097656 204.472656 191.316406 204.207031 C 191.316406 204.207031 201.957031 191.359375 212.609375 174.867188 C 222.277344 159.890625 232.253906 142.21875 234.015625 126.707031 Z M 126.507812 147.808594 L 127.375 148.015625 C 127.054688 147.984375 126.738281 147.957031 126.417969 147.84375 C 126.457031 147.835938 126.480469 147.808594 126.507812 147.808594 Z M 107.8125 157.03125 C 107.828125 157.207031 107.886719 157.410156 107.875 157.5625 C 107.84375 157.945312 107.746094 158.011719 107.667969 158.242188 C 107.722656 157.855469 107.789062 157.449219 107.8125 157.03125 Z M 152.796875 196.582031 C 152.03125 196.582031 151.273438 196.660156 150.523438 196.808594 C 149.773438 196.957031 149.042969 197.175781 148.339844 197.46875 C 147.632812 197.761719 146.960938 198.121094 146.324219 198.546875 C 145.6875 198.972656 145.101562 199.453125 144.558594 199.996094 C 144.019531 200.535156 143.535156 201.125 143.113281 201.757812 C 142.6875 202.394531 142.328125 203.066406 142.035156 203.773438 C 141.742188 204.480469 141.523438 205.207031 141.371094 205.957031 C 141.222656 206.707031 141.148438 207.464844 141.148438 208.230469 C 141.148438 208.996094 141.222656 209.75 141.371094 210.5 C 141.523438 211.25 141.742188 211.980469 142.035156 212.6875 C 142.328125 213.394531 142.6875 214.0625 143.113281 214.699219 C 143.535156 215.335938 144.019531 215.925781 144.558594 216.464844 C 145.101562 217.003906 145.6875 217.488281 146.324219 217.914062 C 146.960938 218.339844 147.632812 218.695312 148.339844 218.988281 C 149.042969 219.28125 149.773438 219.503906 150.523438 219.652344 C 151.273438 219.800781 152.03125 219.875 152.796875 219.875 C 153.558594 219.875 154.316406 219.800781 155.066406 219.652344 C 155.816406 219.503906 156.546875 219.28125 157.25 218.988281 C 157.957031 218.695312 158.628906 218.339844 159.265625 217.914062 C 159.902344 217.488281 160.488281 217.003906 161.03125 216.464844 C 161.570312 215.925781 162.054688 215.335938 162.476562 214.699219 C 162.902344 214.0625 163.261719 213.394531 163.554688 212.6875 C 163.847656 211.980469 164.066406 211.25 164.21875 210.5 C 164.367188 209.75 164.441406 208.996094 164.441406 208.230469 C 164.441406 207.464844 164.367188 206.707031 164.21875 205.957031 C 164.066406 205.207031 163.847656 204.480469 163.554688 203.773438 C 163.261719 203.066406 162.902344 202.394531 162.476562 201.757812 C 162.054688 201.125 161.570312 200.535156 161.03125 199.996094 C 160.488281 199.453125 159.902344 198.972656 159.265625 198.546875 C 158.628906 198.121094 157.957031 197.761719 157.25 197.46875 C 156.546875 197.175781 155.816406 196.957031 155.066406 196.808594 C 154.316406 196.660156 153.558594 196.582031 152.796875 196.582031 Z M 138.355469 278.332031 C 138.78125 278.367188 138.816406 278.417969 138.792969 278.414062 C 138.179688 278.496094 137.625 278.414062 136.992188 278.570312 C 137.554688 278.390625 138.070312 278.3125 138.355469 278.332031 Z M 135.855469 279.125 C 135.824219 279.144531 135.800781 279.148438 135.773438 279.171875 L 135.773438 279.160156 C 135.796875 279.140625 135.828125 279.144531 135.855469 279.125 Z M 135.855469 279.125 " fill-opacity="1" fill-rule="nonzero"/></svg>