<svg xmlns="http://www.w3.org/2000/svg" xmlns:xlink="http://www.w3.org/1999/xlink" width="500" zoomAndPan="magnify" viewBox="0 0 375 374.999991" height="500" preserveAspectRatio="xMidYMid meet" version="1.0"><defs><clipPath id="59510ab22a"><path d="M 74.480469 145 L 84 145 L 84 230 L 74.480469 230 Z M 74.480469 145 " clip-rule="nonzero"/></clipPath><clipPath id="b409fc6323"><path d="M 118 74.480469 L 257 74.480469 L 257 300.230469 L 118 300.230469 Z M 118 74.480469 " clip-rule="nonzero"/></clipPath><clipPath id="61e8a3f8b7"><path d="M 291 145 L 300.230469 145 L 300.230469 230 L 291 230 Z M 291 145 " clip-rule="nonzero"/></clipPath></defs><g clip-path="url(#59510ab22a)"><path fill="#03346e" d="M 78.910156 145.390625 C 76.464844 145.390625 74.480469 147.375 74.480469 149.824219 L 74.480469 225.167969 C 74.480469 227.613281 76.464844 229.597656 78.910156 229.597656 C 81.359375 229.597656 83.34375 227.613281 83.34375 225.167969 L 83.34375 149.824219 C 83.34375 147.375 81.359375 145.390625 78.910156 145.390625 Z M 78.910156 145.390625 " fill-opacity="1" fill-rule="nonzero"/></g><g clip-path="url(#b409fc6323)"><path fill="#03346e" d="M 251.757812 163.121094 L 238.464844 163.121094 L 238.464844 125.449219 C 238.464844 97.34375 215.597656 74.480469 187.496094 74.480469 C 159.390625 74.480469 136.527344 97.34375 136.527344 125.449219 L 136.527344 163.121094 L 123.230469 163.121094 C 120.785156 163.121094 118.800781 165.105469 118.800781 167.550781 L 118.800781 205.222656 C 118.800781 241.613281 147.242188 271.480469 183.0625 273.773438 L 183.0625 291.648438 L 167.550781 291.648438 C 165.105469 291.648438 163.121094 293.632812 163.121094 296.078125 C 163.121094 298.527344 165.105469 300.511719 167.550781 300.511719 L 207.441406 300.511719 C 209.886719 300.511719 211.871094 298.527344 211.871094 296.078125 C 211.871094 293.632812 209.886719 291.648438 207.441406 291.648438 L 191.925781 291.648438 L 191.925781 273.773438 C 227.75 271.480469 256.191406 241.613281 256.191406 205.222656 L 256.191406 167.550781 C 256.191406 165.105469 254.207031 163.121094 251.757812 163.121094 Z M 163.121094 127.664062 L 211.871094 127.664062 C 214.320312 127.664062 216.304688 129.648438 216.304688 132.097656 C 216.304688 134.542969 214.320312 136.527344 211.871094 136.527344 L 163.121094 136.527344 C 160.671875 136.527344 158.6875 134.542969 158.6875 132.097656 C 158.6875 129.648438 160.671875 127.664062 163.121094 127.664062 Z M 163.121094 149.824219 L 211.871094 149.824219 C 214.320312 149.824219 216.304688 151.808594 216.304688 154.253906 C 216.304688 156.703125 214.320312 158.6875 211.871094 158.6875 L 163.121094 158.6875 C 160.671875 158.6875 158.6875 156.703125 158.6875 154.253906 C 158.6875 151.808594 160.671875 149.824219 163.121094 149.824219 Z M 163.121094 171.984375 L 211.871094 171.984375 C 214.320312 171.984375 216.304688 173.96875 216.304688 176.414062 C 216.304688 178.863281 214.320312 180.847656 211.871094 180.847656 L 163.121094 180.847656 C 160.671875 180.847656 158.6875 178.863281 158.6875 176.414062 C 158.6875 173.96875 160.671875 171.984375 163.121094 171.984375 Z M 163.121094 194.144531 L 211.871094 194.144531 C 214.320312 194.144531 216.304688 196.128906 216.304688 198.574219 C 216.304688 201.023438 214.320312 203.007812 211.871094 203.007812 L 163.121094 203.007812 C 160.671875 203.007812 158.6875 201.023438 158.6875 198.574219 C 158.6875 196.128906 160.671875 194.144531 163.121094 194.144531 Z M 247.328125 205.222656 C 247.328125 238.214844 220.488281 265.054688 187.496094 265.054688 C 154.503906 265.054688 127.664062 238.214844 127.664062 205.222656 L 127.664062 171.984375 L 136.527344 171.984375 L 136.527344 205.222656 C 136.527344 233.328125 159.390625 256.191406 187.496094 256.191406 C 215.597656 256.191406 238.464844 233.328125 238.464844 205.222656 L 238.464844 171.984375 L 247.328125 171.984375 Z M 247.328125 205.222656 " fill-opacity="1" fill-rule="nonzero"/></g><path fill="#03346e" d="M 96.640625 167.550781 C 94.191406 167.550781 92.207031 169.535156 92.207031 171.984375 L 92.207031 203.007812 C 92.207031 205.457031 94.191406 207.441406 96.640625 207.441406 C 99.085938 207.441406 101.070312 205.457031 101.070312 203.007812 L 101.070312 171.984375 C 101.070312 169.535156 99.085938 167.550781 96.640625 167.550781 Z M 96.640625 167.550781 " fill-opacity="1" fill-rule="nonzero"/><path fill="#03346e" d="M 278.351562 167.550781 C 275.902344 167.550781 273.917969 169.535156 273.917969 171.984375 L 273.917969 203.007812 C 273.917969 205.457031 275.902344 207.441406 278.351562 207.441406 C 280.800781 207.441406 282.785156 205.457031 282.785156 203.007812 L 282.785156 171.984375 C 282.785156 169.535156 280.800781 167.550781 278.351562 167.550781 Z M 278.351562 167.550781 " fill-opacity="1" fill-rule="nonzero"/><g clip-path="url(#61e8a3f8b7)"><path fill="#03346e" d="M 296.078125 145.390625 C 293.632812 145.390625 291.648438 147.375 291.648438 149.824219 L 291.648438 225.167969 C 291.648438 227.613281 293.632812 229.597656 296.078125 229.597656 C 298.527344 229.597656 300.511719 227.613281 300.511719 225.167969 L 300.511719 149.824219 C 300.511719 147.375 298.527344 145.390625 296.078125 145.390625 Z M 296.078125 145.390625 " fill-opacity="1" fill-rule="nonzero"/></g></svg>