<svg xmlns="http://www.w3.org/2000/svg" xmlns:xlink="http://www.w3.org/1999/xlink" width="500" zoomAndPan="magnify" viewBox="0 0 375 374.999991" height="500" preserveAspectRatio="xMidYMid meet" version="1.0"><defs><clipPath id="977d73a363"><path d="M 75.183594 81 L 281 81 L 281 236 L 75.183594 236 Z M 75.183594 81 " clip-rule="nonzero"/></clipPath><clipPath id="3ae5dbe70d"><path d="M 100 134 L 300 134 L 300 294.597656 L 100 294.597656 Z M 100 134 " clip-rule="nonzero"/></clipPath></defs><g clip-path="url(#977d73a363)"><path fill="#03346e" d="M 280.71875 136.046875 L 268.851562 92.085938 C 266.816406 84.5625 259.011719 80.078125 251.433594 82.09375 L 86.371094 125.992188 C 82.671875 126.976562 79.589844 129.328125 77.695312 132.613281 C 75.808594 135.875 75.3125 139.679688 76.300781 143.320312 L 100.46875 232.839844 C 100.894531 234.425781 102.328125 235.46875 103.898438 235.46875 C 104.203125 235.46875 104.511719 235.425781 104.824219 235.34375 C 106.722656 234.832031 107.84375 232.878906 107.328125 230.984375 L 83.164062 141.464844 C 82.675781 139.664062 82.921875 137.78125 83.851562 136.167969 C 84.796875 134.53125 86.339844 133.355469 88.199219 132.863281 L 253.257812 88.964844 C 257.058594 87.957031 260.976562 90.183594 261.988281 93.9375 L 273.859375 137.902344 C 274.367188 139.792969 276.316406 140.917969 278.214844 140.40625 C 280.109375 139.894531 281.230469 137.941406 280.71875 136.046875 Z M 280.71875 136.046875 " fill-opacity="1" fill-rule="nonzero"/></g><g clip-path="url(#3ae5dbe70d)"><path fill="#03346e" d="M 285.539062 134.929688 L 114.910156 134.929688 C 107.070312 134.929688 100.691406 141.320312 100.691406 149.171875 L 100.691406 280.652344 C 100.691406 288.503906 107.070312 294.894531 114.910156 294.894531 L 285.539062 294.894531 C 293.378906 294.894531 299.753906 288.503906 299.753906 280.652344 L 299.753906 149.175781 C 299.753906 141.320312 293.378906 134.929688 285.539062 134.929688 Z M 292.648438 280.652344 C 292.648438 284.585938 289.457031 287.785156 285.539062 287.785156 L 114.910156 287.785156 C 110.992188 287.785156 107.800781 284.585938 107.800781 280.652344 L 107.800781 149.175781 C 107.800781 145.242188 110.992188 142.039062 114.910156 142.039062 L 285.539062 142.039062 C 289.457031 142.039062 292.648438 145.238281 292.648438 149.171875 Z M 292.648438 280.652344 " fill-opacity="1" fill-rule="nonzero"/></g><path fill="#03346e" d="M 182.449219 206.023438 L 122.019531 206.023438 C 120.058594 206.023438 118.464844 207.621094 118.464844 209.578125 L 118.464844 245.125 C 118.464844 247.089844 120.058594 248.683594 122.019531 248.683594 L 182.449219 248.683594 C 184.410156 248.683594 186.003906 247.089844 186.003906 245.125 L 186.003906 209.578125 C 186.003906 207.621094 184.410156 206.023438 182.449219 206.023438 Z M 178.898438 241.574219 L 125.574219 241.574219 L 125.574219 213.136719 L 178.898438 213.136719 Z M 178.898438 241.574219 " fill-opacity="1" fill-rule="nonzero"/><path fill="#03346e" d="M 193.113281 216.691406 L 281.980469 216.691406 L 281.980469 209.578125 L 193.113281 209.578125 Z M 193.113281 216.691406 " fill-opacity="1" fill-rule="nonzero"/><path fill="#03346e" d="M 193.113281 245.125 L 281.980469 245.125 L 281.980469 238.019531 L 193.113281 238.019531 Z M 193.113281 245.125 " fill-opacity="1" fill-rule="nonzero"/><path fill="#03346e" d="M 193.113281 230.910156 L 281.980469 230.910156 L 281.980469 223.800781 L 193.113281 223.800781 Z M 193.113281 230.910156 " fill-opacity="1" fill-rule="nonzero"/><path fill="#03346e" d="M 122.019531 259.347656 L 281.980469 259.347656 L 281.980469 252.238281 L 122.019531 252.238281 Z M 122.019531 259.347656 " fill-opacity="1" fill-rule="nonzero"/><path fill="#03346e" d="M 122.019531 273.566406 L 281.980469 273.566406 L 281.980469 266.457031 L 122.019531 266.457031 Z M 122.019531 273.566406 " fill-opacity="1" fill-rule="nonzero"/><path fill="#03346e" d="M 145.5 160.714844 C 145.441406 160.300781 145.300781 159.9375 145.082031 159.632812 C 144.863281 159.324219 144.539062 159.078125 144.109375 158.898438 C 143.675781 158.714844 143.085938 158.621094 142.34375 158.621094 C 141.671875 158.621094 141.140625 158.714844 140.753906 158.898438 C 140.363281 159.078125 140.070312 159.324219 139.875 159.632812 C 139.679688 159.9375 139.550781 160.300781 139.492188 160.714844 C 139.433594 161.132812 139.402344 161.574219 139.402344 162.042969 L 139.402344 180.242188 L 138.878906 180.242188 L 131.902344 161.339844 C 131.710938 160.828125 131.457031 160.375 131.136719 159.980469 C 130.84375 159.644531 130.464844 159.335938 130.007812 159.050781 C 129.542969 158.761719 128.949219 158.621094 128.21875 158.621094 L 125.324219 158.621094 C 124.503906 158.621094 123.871094 158.761719 123.425781 159.050781 C 122.980469 159.335938 122.65625 159.714844 122.449219 160.191406 C 122.246094 160.664062 122.125 161.207031 122.089844 161.8125 C 122.054688 162.417969 122.035156 163.035156 122.035156 163.664062 L 122.035156 185.902344 C 122.035156 186.367188 122.0625 186.8125 122.121094 187.226562 C 122.179688 187.644531 122.316406 188.007812 122.539062 188.3125 C 122.757812 188.617188 123.085938 188.867188 123.527344 189.046875 C 123.964844 189.230469 124.5625 189.320312 125.324219 189.320312 C 125.996094 189.320312 126.527344 189.230469 126.914062 189.046875 C 127.300781 188.867188 127.597656 188.617188 127.792969 188.3125 C 127.988281 188.007812 128.117188 187.644531 128.175781 187.226562 C 128.230469 186.8125 128.261719 186.367188 128.261719 185.902344 L 128.261719 167.699219 L 128.789062 167.699219 L 135.410156 185.640625 C 135.511719 185.933594 135.65625 186.289062 135.839844 186.710938 C 136.023438 187.140625 136.269531 187.542969 136.578125 187.929688 C 136.882812 188.320312 137.265625 188.648438 137.726562 188.917969 C 138.1875 189.1875 138.761719 189.324219 139.445312 189.324219 L 142.34375 189.324219 C 143.144531 189.324219 143.773438 189.179688 144.214844 188.894531 C 144.664062 188.609375 144.984375 188.230469 145.183594 187.757812 C 145.378906 187.28125 145.496094 186.742188 145.53125 186.144531 C 145.566406 185.546875 145.585938 184.921875 145.585938 184.277344 L 145.585938 162.042969 C 145.589844 161.574219 145.558594 161.132812 145.5 160.714844 Z M 145.5 160.714844 " fill-opacity="1" fill-rule="nonzero"/><path fill="#03346e" d="M 169.058594 173.761719 C 168.996094 173.15625 168.867188 172.558594 168.660156 171.964844 C 168.453125 171.375 168.148438 170.796875 167.738281 170.246094 C 167.332031 169.691406 166.773438 169.199219 166.070312 168.773438 C 165.371094 168.351562 164.496094 168.007812 163.449219 167.746094 C 162.402344 167.480469 161.144531 167.347656 159.667969 167.347656 C 159.226562 167.347656 158.707031 167.371094 158.097656 167.414062 C 157.492188 167.460938 156.851562 167.570312 156.179688 167.742188 C 155.503906 167.921875 154.839844 168.1875 154.183594 168.546875 C 153.527344 168.902344 152.933594 169.402344 152.410156 170.046875 C 151.882812 170.6875 151.457031 171.492188 151.125 172.457031 C 150.796875 173.421875 150.632812 174.597656 150.632812 175.988281 L 150.632812 181.125 C 150.632812 182.632812 150.878906 183.898438 151.378906 184.941406 C 151.875 185.976562 152.542969 186.820312 153.386719 187.460938 C 154.226562 188.105469 155.195312 188.574219 156.292969 188.867188 C 157.386719 189.15625 158.542969 189.3125 159.753906 189.324219 C 160.675781 189.324219 161.667969 189.246094 162.726562 189.085938 C 163.789062 188.925781 164.769531 188.65625 165.679688 188.273438 C 166.582031 187.894531 167.339844 187.386719 167.9375 186.75 C 168.535156 186.113281 168.835938 185.320312 168.835938 184.371094 C 168.835938 183.914062 168.753906 183.550781 168.59375 183.265625 C 168.433594 182.980469 168.21875 182.757812 167.957031 182.59375 C 167.695312 182.433594 167.390625 182.320312 167.046875 182.261719 C 166.703125 182.207031 166.347656 182.175781 165.984375 182.175781 C 165.222656 182.175781 164.625 182.246094 164.195312 182.386719 C 163.761719 182.523438 163.429688 182.695312 163.1875 182.898438 C 162.949219 183.105469 162.753906 183.324219 162.605469 183.558594 C 162.460938 183.789062 162.300781 184.011719 162.117188 184.214844 C 161.929688 184.417969 161.683594 184.589844 161.367188 184.730469 C 161.054688 184.867188 160.605469 184.9375 160.019531 184.9375 C 159.507812 184.9375 159.074219 184.835938 158.726562 184.628906 C 158.375 184.425781 158.089844 184.164062 157.878906 183.839844 C 157.667969 183.519531 157.519531 183.167969 157.429688 182.789062 C 157.34375 182.40625 157.296875 182.042969 157.296875 181.691406 L 157.296875 179.585938 L 166.027344 179.585938 C 166.800781 179.585938 167.40625 179.484375 167.828125 179.277344 C 168.25 179.074219 168.5625 178.832031 168.757812 178.546875 C 168.957031 178.261719 169.070312 177.960938 169.097656 177.644531 C 169.125 177.332031 169.140625 177.054688 169.140625 176.820312 L 169.144531 176.820312 L 169.144531 175.464844 C 169.144531 174.933594 169.117188 174.371094 169.058594 173.761719 Z M 157.296875 176.296875 L 157.296875 174.761719 C 157.296875 174.511719 157.316406 174.226562 157.363281 173.90625 C 157.40625 173.585938 157.515625 173.277344 157.695312 172.996094 C 157.871094 172.710938 158.128906 172.472656 158.472656 172.285156 C 158.816406 172.09375 159.289062 172 159.886719 172 C 160.605469 172 161.15625 172.09375 161.542969 172.285156 C 161.929688 172.476562 162.210938 172.753906 162.398438 173.117188 C 162.582031 173.480469 162.691406 173.933594 162.726562 174.46875 C 162.761719 175 162.78125 175.609375 162.78125 176.296875 Z M 157.296875 176.296875 " fill-opacity="1" fill-rule="nonzero"/><path fill="#03346e" d="M 200.917969 169.476562 C 200.816406 169.082031 200.644531 168.730469 200.414062 168.421875 C 200.179688 168.117188 199.878906 167.871094 199.515625 167.679688 C 199.148438 167.488281 198.703125 167.394531 198.175781 167.394531 C 197.664062 167.394531 197.226562 167.484375 196.863281 167.667969 C 196.496094 167.851562 196.179688 168.089844 195.917969 168.390625 C 195.65625 168.691406 195.433594 169.03125 195.246094 169.410156 C 195.066406 169.792969 194.917969 170.1875 194.800781 170.59375 L 192.339844 179.191406 L 191.992188 179.191406 L 189.667969 173.007812 C 189.242188 171.855469 188.757812 171.050781 188.210938 170.609375 C 187.660156 170.160156 187.039062 169.9375 186.332031 169.9375 C 185.632812 169.9375 184.976562 170.160156 184.371094 170.609375 C 183.761719 171.054688 183.277344 171.855469 182.910156 173.011719 L 180.894531 179.195312 L 180.542969 179.195312 L 177.78125 170.59375 C 177.648438 170.1875 177.488281 169.792969 177.300781 169.410156 C 177.105469 169.03125 176.882812 168.691406 176.617188 168.394531 C 176.355469 168.089844 176.0625 167.855469 175.730469 167.667969 C 175.402344 167.488281 175.03125 167.394531 174.621094 167.394531 C 174.039062 167.394531 173.550781 167.484375 173.15625 167.660156 C 172.757812 167.832031 172.441406 168.070312 172.199219 168.367188 C 171.957031 168.671875 171.785156 169.015625 171.671875 169.410156 C 171.5625 169.804688 171.507812 170.214844 171.507812 170.636719 C 171.507812 171.035156 171.5625 171.433594 171.671875 171.832031 C 171.78125 172.234375 171.90625 172.613281 172.035156 172.964844 L 176.949219 185.902344 C 177.273438 186.761719 177.578125 187.425781 177.871094 187.886719 C 178.164062 188.347656 178.453125 188.683594 178.738281 188.894531 C 179.019531 189.105469 179.304688 189.230469 179.589844 189.269531 C 179.875 189.304688 180.179688 189.320312 180.5 189.320312 C 180.792969 189.320312 181.074219 189.304688 181.335938 189.269531 C 181.597656 189.230469 181.859375 189.105469 182.117188 188.894531 C 182.371094 188.683594 182.632812 188.347656 182.902344 187.886719 C 183.171875 187.425781 183.46875 186.765625 183.792969 185.902344 L 186.160156 178.007812 L 186.511719 178.007812 L 188.789062 185.902344 C 189.113281 186.761719 189.421875 187.425781 189.710938 187.886719 C 190.003906 188.347656 190.292969 188.683594 190.578125 188.894531 C 190.863281 189.105469 191.148438 189.230469 191.433594 189.269531 C 191.71875 189.304688 192.019531 189.320312 192.34375 189.320312 C 192.636719 189.320312 192.917969 189.304688 193.179688 189.269531 C 193.441406 189.230469 193.703125 189.105469 193.964844 188.894531 C 194.230469 188.683594 194.496094 188.347656 194.765625 187.886719 C 195.039062 187.425781 195.339844 186.765625 195.675781 185.902344 L 200.546875 172.964844 C 200.675781 172.582031 200.796875 172.203125 200.90625 171.832031 C 201.015625 171.460938 201.074219 171.078125 201.074219 170.683594 C 201.074219 170.273438 201.019531 169.871094 200.917969 169.476562 Z M 200.917969 169.476562 " fill-opacity="1" fill-rule="nonzero"/><path fill="#03346e" d="M 219.347656 180.410156 C 218.960938 179.699219 218.457031 179.074219 217.84375 178.53125 C 217.234375 177.992188 216.550781 177.523438 215.804688 177.121094 C 215.0625 176.714844 214.328125 176.339844 213.613281 175.988281 C 213.144531 175.769531 212.695312 175.550781 212.265625 175.332031 C 211.832031 175.113281 211.453125 174.890625 211.125 174.660156 C 210.796875 174.433594 210.535156 174.199219 210.34375 173.953125 C 210.15625 173.703125 210.058594 173.429688 210.058594 173.136719 C 210.058594 172.816406 210.121094 172.554688 210.226562 172.347656 C 210.335938 172.144531 210.484375 171.980469 210.664062 171.859375 C 210.851562 171.734375 211.054688 171.648438 211.28125 171.59375 C 211.507812 171.542969 211.746094 171.519531 211.992188 171.519531 C 212.589844 171.519531 213.101562 171.664062 213.515625 171.957031 C 213.933594 172.25 214.152344 172.675781 214.183594 173.230469 C 214.183594 173.433594 214.242188 173.644531 214.351562 173.863281 C 214.460938 174.082031 214.621094 174.28125 214.824219 174.453125 C 215.027344 174.632812 215.273438 174.777344 215.558594 174.894531 C 215.84375 175.015625 216.160156 175.070312 216.511719 175.070312 C 216.921875 175.058594 217.3125 175.015625 217.695312 174.949219 C 218.074219 174.882812 218.414062 174.769531 218.714844 174.601562 C 219.015625 174.433594 219.253906 174.207031 219.4375 173.921875 C 219.621094 173.636719 219.710938 173.273438 219.710938 172.835938 C 219.710938 172.574219 219.695312 172.253906 219.660156 171.871094 C 219.621094 171.492188 219.527344 171.09375 219.371094 170.675781 C 219.21875 170.257812 218.984375 169.847656 218.667969 169.4375 C 218.355469 169.027344 217.925781 168.660156 217.375 168.328125 C 216.828125 168 216.140625 167.730469 215.3125 167.527344 C 214.488281 167.324219 213.484375 167.222656 212.300781 167.222656 L 211.949219 167.222656 C 210.632812 167.25 209.460938 167.367188 208.429688 167.574219 C 207.402344 167.777344 206.523438 168.117188 205.808594 168.589844 C 205.09375 169.066406 204.546875 169.6875 204.175781 170.457031 C 203.804688 171.222656 203.613281 172.175781 203.613281 173.316406 C 203.613281 174.09375 203.785156 174.78125 204.121094 175.390625 C 204.457031 175.996094 204.894531 176.542969 205.4375 177.023438 C 205.976562 177.503906 206.578125 177.945312 207.246094 178.339844 C 207.910156 178.734375 208.574219 179.109375 209.230469 179.457031 C 209.757812 179.75 210.273438 180.039062 210.777344 180.324219 C 211.28125 180.609375 211.730469 180.90625 212.128906 181.210938 C 212.523438 181.519531 212.835938 181.851562 213.078125 182.210938 C 213.320312 182.570312 213.441406 182.953125 213.441406 183.359375 C 213.441406 183.839844 213.261719 184.234375 212.902344 184.535156 C 212.546875 184.832031 212.082031 184.984375 211.511719 184.984375 C 211.234375 184.984375 210.949219 184.96875 210.65625 184.929688 C 210.367188 184.894531 210.097656 184.816406 209.855469 184.710938 C 209.617188 184.597656 209.417969 184.457031 209.265625 184.28125 C 209.109375 184.105469 209.027344 183.871094 209.011719 183.578125 C 208.984375 182.703125 208.734375 182.066406 208.265625 181.671875 C 207.796875 181.277344 207.199219 181.078125 206.46875 181.078125 C 205.457031 181.078125 204.707031 181.285156 204.21875 181.691406 C 203.730469 182.105469 203.484375 182.746094 203.484375 183.625 C 203.484375 183.988281 203.527344 184.386719 203.613281 184.816406 C 203.703125 185.25 203.855469 185.6875 204.074219 186.121094 C 204.292969 186.5625 204.597656 186.984375 204.984375 187.386719 C 205.375 187.785156 205.867188 188.144531 206.46875 188.457031 C 207.066406 188.773438 207.78125 189.027344 208.617188 189.214844 C 209.449219 189.40625 210.425781 189.5 211.554688 189.5 C 212.125 189.5 212.730469 189.460938 213.375 189.378906 C 214.015625 189.296875 214.648438 189.164062 215.269531 188.976562 C 215.894531 188.785156 216.484375 188.527344 217.042969 188.203125 C 217.605469 187.882812 218.101562 187.476562 218.527344 186.988281 C 218.949219 186.5 219.289062 185.917969 219.542969 185.246094 C 219.804688 184.574219 219.929688 183.796875 219.929688 182.917969 C 219.929688 181.957031 219.734375 181.117188 219.347656 180.410156 Z M 219.347656 180.410156 " fill-opacity="1" fill-rule="nonzero"/></svg>