<svg width="72" height="82" viewBox="0 0 72 82" fill="none" xmlns="http://www.w3.org/2000/svg">
<path d="M22.7524 58.7632L32.3955 68.4062L22.7524 78.0493L26.5757 81.8726L36.2188 72.2295L45.8618 81.8726L49.6851 78.0493L40.042 68.4062L49.6851 58.7632L45.8618 54.9399L36.2188 64.583L26.5757 54.9399L22.7524 58.7632ZM51.1719 65.6875L48.4531 68.4062L51.1719 71.125H71.5625V65.6875H51.1719ZM23.9844 68.4062L21.2656 65.6875H0.875V71.125H21.2656L23.9844 68.4062ZM71.5625 0.4375H0.875V49.375H33.5V53.4531L36.2188 56.1719L38.9375 53.4531V49.375H71.5625V0.4375ZM6.3125 43.9375V5.875H66.125V43.9375H6.3125Z" fill="#202122"/>
</svg>
